<?xml version="1.0" encoding="UTF-8" standalone="no"?>
<svg
   xmlns:dc="http://purl.org/dc/elements/1.1/"
   xmlns:cc="http://creativecommons.org/ns#"
   xmlns:rdf="http://www.w3.org/1999/02/22-rdf-syntax-ns#"
   xmlns:svg="http://www.w3.org/2000/svg"
   xmlns="http://www.w3.org/2000/svg"
   xmlns:sodipodi="http://sodipodi.sourceforge.net/DTD/sodipodi-0.dtd"
   xmlns:inkscape="http://www.inkscape.org/namespaces/inkscape"
   style="height: 512px; width: 512px;"
   viewBox="0 0 512 512"
   version="1.1"
   id="svg6"
   sodipodi:docname="bolt-hand.svg"
   inkscape:export-filename="D:\Varie\SlothMachine\Game\Assets\Resources\UI\Upgrades\2.png"
   inkscape:export-xdpi="300"
   inkscape:export-ydpi="300"
   inkscape:version="0.92.3 (2405546, 2018-03-11)">
  <metadata
     id="metadata12">
    <rdf:RDF>
      <cc:Work
         rdf:about="">
        <dc:format>image/svg+xml</dc:format>
        <dc:type
           rdf:resource="http://purl.org/dc/dcmitype/StillImage" />
      </cc:Work>
    </rdf:RDF>
  </metadata>
  <defs
     id="defs10" />
  <sodipodi:namedview
     pagecolor="#ffffff"
     bordercolor="#666666"
     borderopacity="1"
     objecttolerance="10"
     gridtolerance="10"
     guidetolerance="10"
     inkscape:pageopacity="0"
     inkscape:pageshadow="2"
     inkscape:window-width="640"
     inkscape:window-height="480"
     id="namedview8"
     showgrid="false"
     inkscape:zoom="0.62079004"
     inkscape:cx="184.38614"
     inkscape:cy="239.05953"
     inkscape:current-layer="svg6" />
  <g
     class=""
     style="touch-action:none;fill:#1db1ff;fill-opacity:1"
     transform="translate(0,0)"
     id="g4">
    <path
       d="M485.846 30l-172.967 74.424 64.283 20.32-129.627 65.186 83.637 19.414-96.996 62.219 219.133-69.7-95.29-28.326L471.192 112.8l-72.115-15.024L485.846 30zm-280.46 45.766c-28.066-.117-49.926 56.532-57.726 90.607-11.26 49.19-14.529 83.515-.828 133.059l-17.348 4.798c-15.463-55.917-8.245-94.75 2.301-142.341 10.547-47.592 14.52-70.403-4.459-74.182C85.244 79.328 82.04 178.17 79.57 222.604c-1.396 25.808.71 57.017 6.54 77.552l-16.901 6.196c-14.43-53.35-6.657-97.957-1.693-150.77 2.493-15.582-1.787-25.677-19.102-25.166-15.833.467-27.015 143.362-13.275 179.041 8.713 53.061 31.247 130.572 10.955 152.766L18 494h205.973l19.986-28.592c23.08-5.008 28.42-19.86 37.023-33.787 25.291-40.946 82.384-83.166 129.114-99.226 21.142-7.51-21.912-48.546-53.836-32.782-55.005 27.162-81.646 56.298-117.772 38.295-55.855-27.834-47.245-100.648-35.861-162.83 6.141-33.544 40.41-89.602 7.156-98.824a21.158 21.158 0 0 0-4.396-.488z"
       fill="#74e6ef"
       fill-opacity="1"
       id="path2"
       style="fill:#1db1ff;fill-opacity:1" />
  </g>
</svg>
