<?xml version="1.0" encoding="UTF-8" standalone="no"?>
<svg
   xmlns:dc="http://purl.org/dc/elements/1.1/"
   xmlns:cc="http://creativecommons.org/ns#"
   xmlns:rdf="http://www.w3.org/1999/02/22-rdf-syntax-ns#"
   xmlns:svg="http://www.w3.org/2000/svg"
   xmlns="http://www.w3.org/2000/svg"
   xmlns:sodipodi="http://sodipodi.sourceforge.net/DTD/sodipodi-0.dtd"
   xmlns:inkscape="http://www.inkscape.org/namespaces/inkscape"
   style="height: 512px; width: 512px;"
   viewBox="0 0 512 512"
   version="1.1"
   id="svg6"
   sodipodi:docname="drill.svg"
   inkscape:version="0.92.3 (2405546, 2018-03-11)"
   inkscape:export-filename="D:\Varie\SlothMachine\Game\Assets\Resources\UI\Upgrades\Permanent\2_3.png"
   inkscape:export-xdpi="300"
   inkscape:export-ydpi="300">
  <metadata
     id="metadata12">
    <rdf:RDF>
      <cc:Work
         rdf:about="">
        <dc:format>image/svg+xml</dc:format>
        <dc:type
           rdf:resource="http://purl.org/dc/dcmitype/StillImage" />
      </cc:Work>
    </rdf:RDF>
  </metadata>
  <defs
     id="defs10" />
  <sodipodi:namedview
     pagecolor="#ffffff"
     bordercolor="#666666"
     borderopacity="1"
     objecttolerance="10"
     gridtolerance="10"
     guidetolerance="10"
     inkscape:pageopacity="0"
     inkscape:pageshadow="2"
     inkscape:window-width="640"
     inkscape:window-height="480"
     id="namedview8"
     showgrid="false"
     inkscape:zoom="1.7558594"
     inkscape:cx="256"
     inkscape:cy="256"
     inkscape:current-layer="svg6" />
  <g
     class=""
     style="touch-action: none;"
     transform="translate(0,0)"
     id="g4">
    <path
       d="m 190.72,17.688 c -1.236,0 -2.475,0 -3.72,0.03 -1.184,0.03 -2.37,0.096 -3.563,0.157 -0.915,0.047 -1.83,0.093 -2.75,0.156 -1.544,0.104 -3.096,0.227 -4.656,0.376 -39.78,3.82 -84.005,22.38 -113.593,53.938 -0.914,0.975 -1.807,1.97 -2.687,2.97 -0.63,0.715 -1.26,1.427 -1.875,2.155 -0.353,0.418 -0.684,0.858 -1.03,1.28 -0.54,0.653 -1.07,1.307 -1.595,1.97 -0.068,0.085 -0.15,0.162 -0.22,0.25 -0.772,0.98 -1.536,1.967 -2.28,2.968 -0.907,1.22 -1.794,2.442 -2.656,3.687 -0.18,0.26 -0.354,0.52 -0.532,0.78 -0.803,1.177 -1.58,2.367 -2.343,3.564 -0.067,0.1 -0.124,0.21 -0.19,0.31 -0.86,1.356 -1.718,2.716 -2.53,4.095 -0.004,0.008 0.004,0.024 0,0.03 -0.78,1.325 -1.547,2.657 -2.28,4 -0.212,0.386 -0.42,0.77 -0.626,1.157 -0.398,0.744 -0.772,1.5 -1.157,2.25 -0.35,0.685 -0.69,1.374 -1.03,2.063 -0.048,0.097 -0.11,0.185 -0.157,0.28 -0.545,1.11 -1.077,2.225 -1.594,3.345 -0.58,1.26 -1.143,2.51 -1.687,3.78 -0.423,0.985 -0.82,1.98 -1.22,2.97 -0.458,1.132 -0.913,2.266 -1.344,3.406 -0.43,1.142 -0.846,2.29 -1.25,3.438 -0.004,0.012 -0.027,0.018 -0.03,0.03 -0.4,1.137 -0.753,2.265 -1.126,3.407 -0.38,1.165 -0.74,2.332 -1.094,3.5 -0.31,1.032 -0.647,2.06 -0.937,3.095 -0.138,0.488 -0.244,0.98 -0.376,1.47 -0.43,1.59 -0.837,3.183 -1.22,4.78 -0.136,0.572 -0.275,1.146 -0.405,1.72 -0.05,0.207 -0.11,0.415 -0.157,0.624 -2.8,12.473 -4.125,25.047 -4.157,37.155 -0.03,11.863 1.123,23.42 3.532,34.094 0.023,0.103 0.038,0.207 0.062,0.31 0.107,0.47 0.232,0.94 0.344,1.407 0.19,0.794 0.388,1.593 0.593,2.375 0.35,1.33 0.736,2.642 1.125,3.938 0.023,0.073 0.04,0.146 0.063,0.22 0.38,1.254 0.768,2.494 1.188,3.718 0.384,1.12 0.8,2.22 1.218,3.312 0.1,0.26 0.182,0.524 0.282,0.78 0.38,0.972 0.78,1.93 1.188,2.876 0.248,0.575 0.492,1.154 0.75,1.72 0.297,0.65 0.596,1.3 0.906,1.936 0.087,0.18 0.194,0.354 0.282,0.532 0.545,1.1 1.102,2.19 1.687,3.25 0.615,1.114 1.246,2.183 1.906,3.25 0.514,0.828 1.055,1.64 1.595,2.437 0.152,0.225 0.284,0.467 0.438,0.69 0.224,0.322 0.458,0.65 0.687,0.968 0.486,0.675 0.993,1.35 1.5,2 0.248,0.318 0.497,0.625 0.75,0.937 0.272,0.336 0.535,0.67 0.813,1 0.2,0.238 0.42,0.454 0.624,0.688 0.44,0.504 0.89,1.012 1.344,1.5 l 0.5,0.53 c 0.486,0.51 0.97,1.013 1.47,1.5 0.542,0.53 1.095,1.028 1.656,1.532 0.066,0.06 0.12,0.128 0.188,0.188 0.29,0.257 0.58,0.498 0.875,0.75 0.218,0.186 0.433,0.38 0.655,0.562 0.402,0.332 0.807,0.65 1.22,0.97 0.466,0.362 0.926,0.714 1.405,1.06 0.193,0.14 0.4,0.27 0.594,0.408 0.468,0.33 0.927,0.685 1.406,1 0.108,0.07 0.235,0.117 0.344,0.187 0.7,0.452 1.4,0.894 2.125,1.313 l 0.124,0.093 0.125,0.063 99.53,53.06 C 146.014,301.324 136.31,286.32 128.622,271.123 L 51.25,227.187 c -6.087,-12.578 -9.955,-29.526 -9.906,-48.25 0.02,-8.307 0.757,-16.89 2.25,-25.468 l 63.718,44.624 c -0.48,-5.756 -0.666,-11.52 -0.593,-17.28 0.623,-49.355 21.55,-97.852 60.593,-142.408 3.543,-0.597 7.045,-1.074 10.5,-1.406 5.788,-0.556 11.42,-0.72 16.78,-0.53 -45.482,45.9 -68.563,95.274 -69.187,144.56 -0.133,10.51 0.757,21.066 2.688,31.626 l 101.72,71.22 c -0.78,-6.672 -1.146,-13.35 -1.064,-20.032 0.606,-49.25 24.488,-97.445 68.625,-140.22 l -34.25,-64.25 c -2.42,-8.248 -6.81,-15.287 -12.5,-21.093 -0.698,-0.71 -1.42,-1.418 -2.156,-2.093 -1.375,-1.256 -2.785,-2.44 -4.282,-3.562 -0.125,-0.093 -0.25,-0.19 -0.375,-0.28 -0.71,-0.527 -1.452,-1.037 -2.188,-1.532 -0.106,-0.072 -0.206,-0.15 -0.313,-0.22 -0.762,-0.506 -1.524,-0.994 -2.312,-1.468 -0.084,-0.05 -0.166,-0.106 -0.25,-0.156 -0.816,-0.487 -1.66,-0.957 -2.5,-1.407 -0.06,-0.033 -0.126,-0.062 -0.188,-0.094 -0.87,-0.464 -1.76,-0.89 -2.656,-1.314 -0.033,-0.016 -0.06,-0.046 -0.094,-0.062 -0.93,-0.44 -1.858,-0.85 -2.812,-1.25 -1.16,-0.486 -2.337,-0.942 -3.53,-1.375 -0.252,-0.092 -0.5,-0.194 -0.75,-0.282 -0.072,-0.025 -0.15,-0.038 -0.22,-0.063 -0.66,-0.23 -1.33,-0.472 -2,-0.688 -0.104,-0.033 -0.208,-0.06 -0.313,-0.093 -1.548,-0.493 -3.12,-0.932 -4.718,-1.344 -0.586,-0.15 -1.19,-0.298 -1.782,-0.438 -0.22,-0.052 -0.436,-0.105 -0.657,-0.156 -0.55,-0.126 -1.097,-0.257 -1.655,-0.375 -0.258,-0.053 -0.523,-0.103 -0.78,-0.155 -0.527,-0.106 -1.065,-0.214 -1.595,-0.313 -6.937,-1.284 -14.234,-1.876 -21.78,-1.875 z m 115.811,123.156 c -38.92,39.08 -58.576,81.213 -59.092,123.22 -0.143,11.61 1.172,23.29 4,34.967 l 78.125,54.75 c -0.123,-2.452 -0.185,-4.92 -0.157,-7.374 0.365,-32.055 13.53,-63.464 37.78,-91.812 l -60.655,-113.75 z m 70.126,131.562 c -18.83,23.913 -28.277,49.114 -28.562,74.22 -0.082,7.153 0.6,14.333 2.03,21.53 l 60.72,42.53 c 0.746,-16.27 5.657,-32.273 14.312,-47.31 z m -215.28,17.313 c 12.68,18.31 28.792,36.394 48.53,54.092 l 58.53,31.22 C 259.16,362.716 251.5,350.161 245.47,337.437 l -84.095,-47.72 z m 115.966,65.811 c 10.717,15.65 24.408,31.098 41.22,46.22 l 32.623,17.375 c -6.16,-9.804 -11.007,-19.812 -14.562,-29.938 l -59.28,-33.656 z m 158.594,28.064 c -4.23,10.11 -6.4,20.418 -6.5,30.72 -0.194,19.67 7.015,39.694 23.03,58.81 l 16.438,8.75 27.063,14.438 -14.408,-27.093 -45.625,-85.626 z m -71.625,21.312 c 7.277,12.51 17.08,24.897 29.593,37 l 25.625,13.656 c -3.39,-7.683 -5.788,-15.514 -7.217,-23.406 l -48,-27.25 z"
       id="path2"
       inkscape:connector-curvature="0"
       style="fill:#ffffff;fill-opacity:1"
       sodipodi:nodetypes="cccccccccccccccccccccccccccccccccccccccccccccccccccccccccccccccccccccccccccccccccccccccccccccccccccccccccccccccccccccccccccccccccccccccccccccccccccccccccccc" />
  </g>
</svg>
