<?xml version="1.0" encoding="UTF-8" standalone="no"?>
<svg
   xmlns:dc="http://purl.org/dc/elements/1.1/"
   xmlns:cc="http://creativecommons.org/ns#"
   xmlns:rdf="http://www.w3.org/1999/02/22-rdf-syntax-ns#"
   xmlns:svg="http://www.w3.org/2000/svg"
   xmlns="http://www.w3.org/2000/svg"
   xmlns:sodipodi="http://sodipodi.sourceforge.net/DTD/sodipodi-0.dtd"
   xmlns:inkscape="http://www.inkscape.org/namespaces/inkscape"
   style="height: 512px; width: 512px;"
   viewBox="0 0 512 512"
   version="1.1"
   id="svg6"
   sodipodi:docname="sonic-armor.svg"
   inkscape:version="0.92.3 (2405546, 2018-03-11)"
   inkscape:export-filename="D:\Varie\SlothMachine\Game\Assets\Resources\UI\Upgrades\Temporary\15.png"
   inkscape:export-xdpi="300"
   inkscape:export-ydpi="300">
  <metadata
     id="metadata12">
    <rdf:RDF>
      <cc:Work
         rdf:about="">
        <dc:format>image/svg+xml</dc:format>
        <dc:type
           rdf:resource="http://purl.org/dc/dcmitype/StillImage" />
        <dc:title></dc:title>
      </cc:Work>
    </rdf:RDF>
  </metadata>
  <defs
     id="defs10" />
  <sodipodi:namedview
     pagecolor="#ffffff"
     bordercolor="#666666"
     borderopacity="1"
     objecttolerance="10"
     gridtolerance="10"
     guidetolerance="10"
     inkscape:pageopacity="0"
     inkscape:pageshadow="2"
     inkscape:window-width="640"
     inkscape:window-height="480"
     id="namedview8"
     showgrid="false"
     inkscape:zoom="0.87792969"
     inkscape:cx="200.29247"
     inkscape:cy="300.75984"
     inkscape:current-layer="svg6" />
  <g
     class=""
     style="fill:#d173f3;fill-opacity:1"
     transform="matrix(0.75919889,0,0,0.75919889,-24.351486,136.46532)"
     id="g4">
    <path
       d="M 156.7,25.83 89,39.38 C 88.9,97.95 87.26,158.7 45.51,206.6 104.4,246.5 189,260.7 247,248.8 v -99 L 108.3,88.22 115.7,71.78 256,134.2 396.3,71.78 403.7,88.22 265,149.8 v 99 c 58,11.9 142.6,-2.3 201.5,-42.2 C 424.7,158.7 423.1,97.95 423,39.38 L 355.3,25.83 C 342.4,39.71 334.7,53.98 322.4,66.36 308.9,79.78 289.5,89 256,89 222.5,89 203.1,79.78 189.6,66.36 177.3,53.98 169.6,39.71 156.7,25.83 Z M 53.88,232.9 C 75.96,281 96.07,336.6 102.7,392.8 l 65,22.8 c 4.2,-52.7 28.2,-104 63.7,-146.1 -55.1,6.3 -122.7,-5.8 -177.52,-36.6 z m 404.22,0 c -54.8,30.8 -122.4,42.9 -177.5,36.6 35.5,42.1 59.5,93.4 63.7,146.1 l 65.2,-22.9 c 6.6,-56.8 26.6,-111.8 48.6,-159.8 z M 256,269 c -40.5,43.1 -67.7,97.9 -70.7,152.7 L 247,443.3 V 336 h 18 v 107.3 l 61.7,-21.6 C 323.6,366.9 296.5,312.1 256,269 Z M 407.7,412.4 297,451.1 v 18.8 l 110.2,-44.1 c 0.1,-4.5 0.3,-8.9 0.5,-13.4 z m -303.3,0.1 c 0.3,4.5 0.4,8.9 0.5,13.4 l 110.1,44 v -18.7 z m 174.6,44.9 -23,8.1 -23,-8 v 19.6 l 23,9.2 23,-9.2 z"
       id="path2"
       style="fill:#d173f3;fill-opacity:1"
       inkscape:connector-curvature="0" />
  </g>
  <path
     d="m 346.69679,250.93357 c 19.93864,-23.19113 19.33673,-58.64931 -3.06038,-84.40217 -22.39711,-25.75286 -58.92583,-32.9886 -86.64197,-18.73895 25.53393,0.11558 51.42066,10.8775 69.77939,31.98694 18.35875,21.10943 24.60931,47.29731 19.92296,71.15418 z m 61.15305,0.66534 c 20.42723,-35.65399 14.99122,-84.714 -17.34203,-121.89174 -32.3327,-37.177101 -82.00699,-51.485894 -122.69286,-39.124571 37.5743,3.30582 75.83822,22.045011 103.68185,54.060451 27.84362,32.01544 40.00824,71.26048 36.35304,106.95586 z m 74.90039,14.06516 C 504.20403,211.2722 491.92444,142.06806 444.37108,87.389797 396.99151,32.91134 327.90858,8.1673275 267.82007,17.667276 323.79205,26.381692 380.1524,55.95447 422.4616,104.60285 c 42.53286,48.90557 62.05518,106.93279 60.28851,161.0624 z"
     id="path2-7"
     inkscape:connector-curvature="0"
     style="fill:#d173f3;fill-opacity:1;stroke-width:1"
     sodipodi:nodetypes="cscsccscsccscscc" />
</svg>
