<?xml version="1.0" encoding="UTF-8" standalone="no"?>
<svg
   xmlns:dc="http://purl.org/dc/elements/1.1/"
   xmlns:cc="http://creativecommons.org/ns#"
   xmlns:rdf="http://www.w3.org/1999/02/22-rdf-syntax-ns#"
   xmlns:svg="http://www.w3.org/2000/svg"
   xmlns="http://www.w3.org/2000/svg"
   xmlns:sodipodi="http://sodipodi.sourceforge.net/DTD/sodipodi-0.dtd"
   xmlns:inkscape="http://www.inkscape.org/namespaces/inkscape"
   style="height: 512px; width: 512px;"
   viewBox="0 0 512 512"
   version="1.1"
   id="svg6"
   sodipodi:docname="sonic-hand.svg"
   inkscape:export-filename="D:\Varie\SlothMachine\Game\Assets\Resources\UI\Upgrades\Temporary\13.png"
   inkscape:export-xdpi="300"
   inkscape:export-ydpi="300"
   inkscape:version="0.92.3 (2405546, 2018-03-11)">
  <metadata
     id="metadata12">
    <rdf:RDF>
      <cc:Work
         rdf:about="">
        <dc:format>image/svg+xml</dc:format>
        <dc:type
           rdf:resource="http://purl.org/dc/dcmitype/StillImage" />
        <dc:title></dc:title>
      </cc:Work>
    </rdf:RDF>
  </metadata>
  <defs
     id="defs10" />
  <sodipodi:namedview
     pagecolor="#ffffff"
     bordercolor="#666666"
     borderopacity="1"
     objecttolerance="10"
     gridtolerance="10"
     guidetolerance="10"
     inkscape:pageopacity="0"
     inkscape:pageshadow="2"
     inkscape:window-width="640"
     inkscape:window-height="480"
     id="namedview8"
     showgrid="false"
     inkscape:zoom="0.87792969"
     inkscape:cx="101.81067"
     inkscape:cy="242.64394"
     inkscape:current-layer="svg6" />
  <g
     class=""
     style="touch-action:none;fill:#d173f3;fill-opacity:1"
     transform="translate(0,0)"
     id="g4">
    <path
       d="m 205.386,75.766 c -28.066,-0.117 -49.926,56.532 -57.726,90.607 -11.26,49.19 -14.529,83.515 -0.828,133.059 l -17.348,4.798 c -15.463,-55.917 -8.245,-94.75 2.301,-142.341 10.547,-47.592 14.52,-70.403 -4.459,-74.182 C 85.244,79.328 82.04,178.17 79.57,222.604 c -1.396,25.808 0.71,57.017 6.54,77.552 l -16.901,6.196 C 54.779,253.002 62.552,208.395 67.516,155.582 70.009,140 65.729,129.905 48.414,130.416 32.581,130.883 21.399,273.778 35.139,309.457 43.852,362.518 66.386,440.029 46.094,462.223 L 18,494 h 205.973 l 19.986,-28.592 c 23.08,-5.008 28.42,-19.86 37.023,-33.787 25.291,-40.946 82.384,-83.166 129.114,-99.226 21.142,-7.51 -21.912,-48.546 -53.836,-32.782 -55.005,27.162 -81.646,56.298 -117.772,38.295 -55.855,-27.834 -47.245,-100.648 -35.861,-162.83 6.141,-33.544 40.41,-89.602 7.156,-98.824 -1.44426,-0.315802 -2.91764,-0.479362 -4.396,-0.488 z"
       id="path2"
       style="fill:#d173f3;fill-opacity:1"
       inkscape:connector-curvature="0"
       sodipodi:nodetypes="cccccccccccccccccccccccc" />
  </g>
  <path
     d="m 346.32723,256.55007 c 19.93864,-23.19113 19.33673,-58.64931 -3.06038,-84.40217 -22.39711,-25.75286 -58.92583,-32.9886 -86.64197,-18.73895 25.53393,0.11558 51.42066,10.8775 69.77939,31.98694 18.35875,21.10943 24.60931,47.29731 19.92296,71.15418 z m 61.15305,0.66534 c 20.42723,-35.65399 14.99122,-84.714 -17.34203,-121.89174 -32.3327,-37.1771 -82.00699,-51.485893 -122.69286,-39.12457 37.5743,3.30582 75.83822,22.04501 103.68185,54.06045 27.84362,32.01544 40.00824,71.26048 36.35304,106.95586 z m 74.90039,14.06516 C 503.83447,216.8887 491.55488,147.68456 444.00152,93.006298 396.62195,38.527841 327.53902,13.783829 267.45051,23.283778 c 55.97198,8.714415 112.33233,38.287193 154.64153,86.935572 42.53286,48.90557 62.05518,106.93279 60.28851,161.0624 z"
     id="path2-7"
     inkscape:connector-curvature="0"
     style="fill:#d173f3;fill-opacity:1;stroke-width:1"
     sodipodi:nodetypes="cscsccscsccscscc" />
</svg>
