<?xml version="1.0" encoding="UTF-8" standalone="no"?>
<svg
   xmlns:dc="http://purl.org/dc/elements/1.1/"
   xmlns:cc="http://creativecommons.org/ns#"
   xmlns:rdf="http://www.w3.org/1999/02/22-rdf-syntax-ns#"
   xmlns:svg="http://www.w3.org/2000/svg"
   xmlns="http://www.w3.org/2000/svg"
   xmlns:sodipodi="http://sodipodi.sourceforge.net/DTD/sodipodi-0.dtd"
   xmlns:inkscape="http://www.inkscape.org/namespaces/inkscape"
   style="height: 512px; width: 512px;"
   viewBox="0 0 512 512"
   version="1.1"
   id="svg6"
   sodipodi:docname="defense.svg"
   inkscape:version="0.92.3 (2405546, 2018-03-11)"
   inkscape:export-filename="C:\Users\Davide\Downloads\defense.png"
   inkscape:export-xdpi="300"
   inkscape:export-ydpi="300">
  <metadata
     id="metadata12">
    <rdf:RDF>
      <cc:Work
         rdf:about="">
        <dc:format>image/svg+xml</dc:format>
        <dc:type
           rdf:resource="http://purl.org/dc/dcmitype/StillImage" />
      </cc:Work>
    </rdf:RDF>
  </metadata>
  <defs
     id="defs10" />
  <sodipodi:namedview
     pagecolor="#ffffff"
     bordercolor="#666666"
     borderopacity="1"
     objecttolerance="10"
     gridtolerance="10"
     guidetolerance="10"
     inkscape:pageopacity="0"
     inkscape:pageshadow="2"
     inkscape:window-width="640"
     inkscape:window-height="480"
     id="namedview8"
     showgrid="false"
     inkscape:zoom="0.87792969"
     inkscape:cx="483.97608"
     inkscape:cy="127.67197"
     inkscape:current-layer="svg6" />
  <g
     class=""
     style="touch-action: none;"
     transform="translate(0,0)"
     id="g4">
    <path
       d="m 256,21.95 -5.4,4.03 C 187.5,73.41 125.4,104.5 30.58,120.3 l -7.5,1.2 v 7.6 c 0,19 8.4,48.7 22.1,85.1 13.6,36.5 32.8,78.8 55.02,119.2 22.3,40.4 47.4,78.9 73.8,107.7 26.1,28.9 53.5,48.9 82,48.9 28.5,0 55.9,-20 82.2,-48.9 26.2,-28.8 51.3,-67.3 73.7,-107.7 22.2,-40.4 41.3,-82.7 55,-119.2 13.6,-36.4 22,-66.1 22,-85.1 v -7.6 l -7.4,-1.2 C 386.9,104.5 324.6,73.41 261.4,25.98 Z"
       id="path2"
       inkscape:connector-curvature="0"
       style="fill:#ffffff;fill-opacity:1"
       sodipodi:nodetypes="ccccscccscccscccc" />
  </g>
</svg>
