<?xml version="1.0" encoding="UTF-8" standalone="no"?>
<svg
   xmlns:dc="http://purl.org/dc/elements/1.1/"
   xmlns:cc="http://creativecommons.org/ns#"
   xmlns:rdf="http://www.w3.org/1999/02/22-rdf-syntax-ns#"
   xmlns:svg="http://www.w3.org/2000/svg"
   xmlns="http://www.w3.org/2000/svg"
   xmlns:sodipodi="http://sodipodi.sourceforge.net/DTD/sodipodi-0.dtd"
   xmlns:inkscape="http://www.inkscape.org/namespaces/inkscape"
   style="height: 512px; width: 512px;"
   viewBox="0 0 512 512"
   version="1.1"
   id="svg6"
   sodipodi:docname="scraps.svg"
   inkscape:version="0.92.3 (2405546, 2018-03-11)"
   inkscape:export-filename="D:\Varie\SlothMachine\Game\Assets\Resources\UI\scraps.png"
   inkscape:export-xdpi="300"
   inkscape:export-ydpi="300">
  <metadata
     id="metadata12">
    <rdf:RDF>
      <cc:Work
         rdf:about="">
        <dc:format>image/svg+xml</dc:format>
        <dc:type
           rdf:resource="http://purl.org/dc/dcmitype/StillImage" />
        <dc:title />
      </cc:Work>
    </rdf:RDF>
  </metadata>
  <defs
     id="defs10">
    <filter
       inkscape:collect="always"
       style="color-interpolation-filters:sRGB"
       id="filter845"
       x="-0.011746415"
       width="1.0234928"
       y="-0.012264776"
       height="1.0245296">
      <feGaussianBlur
         inkscape:collect="always"
         stdDeviation="2.2502459"
         id="feGaussianBlur847" />
    </filter>
  </defs>
  <sodipodi:namedview
     pagecolor="#ffffff"
     bordercolor="#666666"
     borderopacity="1"
     objecttolerance="10"
     gridtolerance="10"
     guidetolerance="10"
     inkscape:pageopacity="0"
     inkscape:pageshadow="2"
     inkscape:window-width="640"
     inkscape:window-height="480"
     id="namedview8"
     showgrid="false"
     inkscape:zoom="1.2415801"
     inkscape:cx="317.21121"
     inkscape:cy="302.66082"
     inkscape:current-layer="svg6" />
  <g
     id="g843"
     style="fill:#020101;fill-opacity:1;filter:url(#filter845)"
     transform="translate(8.4680253e-4,-7.6527191e-4)">
    <g
       class=""
       style="fill:#020101;fill-opacity:1;stroke-width:2.26310611"
       transform="matrix(0.42760285,-0.11137968,0.11137968,0.42760285,29.935451,295.10102)"
       id="g16">
      <path
         style="fill:#020101;fill-opacity:1;stroke-width:1.00000012"
         d="M 375.32422 32.869141 C 374.58013 32.859804 373.83491 32.862525 373.08984 32.878906 C 359.75009 32.973374 346.41136 38.560281 337.83398 48.945312 C 376.28216 71.847025 414.7313 94.747073 453.17969 117.64844 C 459.99359 98.235542 451.49387 76.987426 438 62.654297 C 434.25576 61.668573 431.41798 72.035332 428.03125 75.53125 C 424.58846 82.824319 422.48252 68.177905 419.66797 65.154297 C 415.50793 57.12214 412.42268 47.993939 407.63867 40.597656 C 397.51157 36.000328 386.48562 33.009186 375.32422 32.869141 z M 100.49414 38.378906 L 100.23633 39.345703 L 99.978516 40.308594 C 98.505333 46.249478 98.178483 54.181117 90.365234 49.152344 C 84.741825 47.732136 77.547264 43.590719 77.916016 52.560547 C 72.699105 52.431911 63.242227 44.950395 63.205078 53.796875 C 59.932799 60.134155 61.284366 63.807136 68.759766 63.949219 C 78.184836 62.990621 69.185926 72.645922 77.853516 72.117188 C 82.222633 74.528882 93.897575 72.719879 89.251953 80.339844 C 86.581774 84.548421 88.603697 96.877726 81.574219 93.541016 C 76.713359 93.675286 67.442128 86.163927 66.878906 93.75 C 65.50988 100.0036 54.128317 88.902847 52.322266 94.390625 C 51.881279 99.102406 45.92644 106.99503 54.205078 106.67188 C 64.424147 105.81463 59.34211 113.80864 65.199219 115.47266 C 69.17539 118.11093 81.430988 115.96768 77.816406 122.98828 C 75.328937 127.28304 76.513155 137.93821 71.673828 138.1582 C 66.706646 137.62743 59.594474 133.38873 55.839844 134.95508 C 55.861242 143.31382 47.067823 136.41156 42.150391 136.22266 C 40.71034 137.81121 35.817025 148.08441 39.646484 149.38672 C 45.118446 151.17815 54.334018 150.81134 49.515625 158.53711 C 55.345727 160.1031 61.186826 161.66141 67.021484 163.22461 C 65.360685 169.41732 63.699876 175.61003 62.039062 181.80273 C 56.203132 180.24085 50.36713 178.67925 44.53125 177.11719 C 44.84469 186.36361 35.92368 179.62033 30.630859 179.16016 C 28.680689 180.69365 24.838021 190.99244 28.144531 192.32617 C 33.778212 194.07817 42.866755 193.83231 37.953125 201.68359 C 43.788135 203.24339 49.622352 204.80618 55.457031 206.36719 C 55.600483 211.00176 48.36452 219.91833 55.875 220.29688 C 101.49726 232.50731 147.10938 244.75296 192.73438 256.95312 C 195.19698 253.06799 193.28554 241.57497 200.04297 245.10547 C 204.31542 244.92711 212.2346 251.05612 214.1543 246.81055 C 214.1929 238.62448 223.12691 245.83609 227.9043 245.85352 C 229.34155 244.26132 234.23201 233.99002 230.40234 232.6875 C 225.65071 230.63504 215.34338 231.79115 220.21875 224.17969 C 214.40346 222.62258 208.57999 221.06645 202.76172 219.50977 C 204.42252 213.31706 206.08333 207.12434 207.74414 200.93164 C 213.56238 202.48872 219.38159 204.04217 225.19922 205.60156 C 224.70827 196.12017 232.87868 201.66051 238.42188 202.64453 C 242.99381 203.30956 241.66462 193.76308 243.83398 190.26562 C 239.98421 187.63789 227.85625 189.78361 231.26758 182.96875 C 231.48586 178.21734 221.16816 179.54737 217.29492 177.1582 C 210.84496 175.96588 218.59027 166.57503 218.20898 161.87695 C 217.93063 152.80524 227.03195 159.9718 232.11914 160.18945 C 239.4053 165.39138 236.12737 152.32159 243.30664 157.34375 C 250.33799 161.02429 254.0107 158.88369 254.36328 150.99023 C 258.12168 143.8201 246.26927 145.65832 241.97461 143.13477 C 246.51758 135.76133 238.53127 135.63327 232.96094 134.10742 C 223.58991 134.6042 227.25199 127.57553 228.99219 121.65625 C 229.03479 112.8987 233.9515 112.58151 240.91211 115.80273 C 249.09969 121.69679 247.89383 111.32701 253.98438 113.59375 C 260.48831 116.35089 265.85053 117.1341 265.76172 108.46875 C 270.353 100.81745 259.37703 102.15049 254.59766 99.908203 C 255.81039 94.422301 253.2039 91.141781 245.61719 90.736328 C 237.9589 90.696088 236.96945 86.801946 240 80.595703 C 244.08006 73.799303 234.0654 75.093413 229.92969 73.033203 C 186.7843 61.48527 143.64305 49.910826 100.49414 38.378906 z M 363.99805 84.886719 L 363.46875 85.734375 L 362.96094 86.544922 C 354.30646 100.20838 346.27028 114.2602 338.83984 128.625 C 359.28252 129.19379 379.72519 129.76277 400.16797 130.32812 C 403.71067 124.46013 407.12079 118.51383 410.47266 112.53516 C 394.9817 103.31803 379.48985 94.102408 363.99805 84.886719 z M 207.32227 90.515625 C 208.30482 90.52492 209.62047 91.357191 211.7832 91.304688 C 198.95775 139.14003 187.77824 179.73699 174.93164 227.56641 C 142.92841 218.99827 120.19123 212.22781 88.189453 203.6543 C 79.468283 203.68742 83.206951 202.20323 83.400391 197.08984 C 112.70652 204.94607 141.81117 213.00465 171.11719 220.86133 C 182.60936 177.97006 193.89844 135.68425 205.39062 92.792969 C 205.99501 90.999968 206.55806 90.508396 207.32227 90.515625 z M 330.39844 145.88086 L 329.98242 146.78906 L 329.84766 147.08008 C 324.30056 158.98508 319.25011 171.11723 314.63867 183.41406 C 330.51164 183.85893 346.38474 184.29889 362.25781 184.74023 C 371.11342 173.29757 380.36339 161.73238 387.6543 149.38867 C 385.7014 144.98933 375.85659 148.27447 370.71484 146.98047 C 357.27612 146.61451 343.83719 146.24539 330.39844 145.88086 z M 308.6543 200.72656 L 308.35156 201.67969 L 308.19727 202.16016 C 302.87827 218.58824 298.63448 235.35355 295.36328 252.30664 C 314.31425 237.02191 331.87483 220.05655 347.99609 201.81836 C 334.88218 201.45356 321.76827 201.08919 308.6543 200.72656 z M 455.20508 217.83398 C 454.01189 217.82767 452.81919 217.83053 451.62891 217.83789 C 435.04856 218.10985 418.5106 219.78391 402.11133 222.17578 C 413.0457 226.40654 424.00673 230.96434 434.55273 235.87305 C 453.87245 235.20022 473.29358 235.15593 492.51758 236.91992 C 488.26651 231.51841 484.89861 224.7938 480.11523 220.18945 C 471.95914 218.33002 463.55739 217.87822 455.20508 217.83398 z M 377.39648 221.52734 C 372.50424 222.31925 370.48717 228.28332 369.44336 233.04688 C 368.32837 237.74504 369.77852 244.16117 375.65039 244.49414 C 407.98977 256.74002 439.86856 271.89722 467.83203 292.22852 C 471.59152 294.12476 473.59035 299.76468 478.33984 299.02344 C 479.49411 295.34269 482.46216 291.7837 482.52344 287.49609 C 483.62337 281.8255 482.28022 275.31769 476.78711 272.30664 C 448.99346 246.76 414.06665 229.7815 377.39648 221.52734 z M 431.71875 276.58203 C 417.05191 277.17424 402.42613 278.71091 387.91016 280.86328 C 398.89146 285.08411 409.87525 289.67583 420.48242 294.55273 C 434.05167 294.03631 447.725 294.03938 461.33594 294.39844 C 451.74439 288.09148 442.02887 281.42023 431.71875 276.58203 z M 142.34961 277.9082 L 141.69727 278.39648 C 112.47403 300.23706 83.250275 322.07697 54.027344 343.91797 C 60.930885 370.42746 67.835616 396.93662 74.742188 423.44531 C 111.17626 428.29032 147.61068 433.13273 184.04492 437.97656 C 213.48488 415.97289 242.92696 393.97206 272.36719 371.96875 C 265.46352 345.45931 258.559 318.95008 251.65234 292.44141 C 215.21826 287.5958 178.78385 282.75263 142.34961 277.9082 z M 363.21094 280.20312 C 356.64814 282.14569 354.66736 290.8301 355.25781 296.89844 C 355.68086 303.74195 364.45159 303.10959 368.85156 305.79102 C 399.25117 318.08383 429.31632 332.37271 455.55078 352.25 C 458.42268 353.96505 460.22332 358.50799 464.25 357.56641 C 465.3564 353.86673 468.39595 350.33966 468.41797 346.04297 C 469.7565 339.95865 467.64387 333.37942 461.97266 330.21484 C 434.22637 305.12704 399.56112 288.35636 363.21094 280.20312 z M 172.55273 310.7832 C 191.75598 310.51058 213.90625 318.57242 222.11133 337.51953 C 229.96282 355.73406 219.58479 376.17546 204.9082 387.46094 C 182.36551 405.09059 149.78228 411.09149 123.57812 398.26953 C 107.97182 391.00341 97.750642 372.66611 102.80273 355.67188 C 109.5665 331.6728 133.64097 316.85287 156.95508 312.33398 C 162.09084 311.33303 167.31941 310.79763 172.55273 310.7832 z M 171.36719 314.75977 C 146.97229 315.39763 120.88633 326.96525 109.29102 349.40039 C 105.1738 357.64134 104.2224 367.53504 107.68359 376.19141 C 110.89888 365.09479 115.21681 353.82428 124.13086 345.9668 C 145.73537 325.71905 181.19167 319.34977 206.99023 335.16602 C 212.14111 338.2775 215.82026 343.14235 220.54883 346.77539 C 218.19513 328.52113 199.96495 317.63027 183.08594 315.50195 C 179.20915 314.92671 175.28523 314.69105 171.36719 314.75977 z M 173.26367 330.30859 C 149.63754 330.88095 124.29781 343.33318 115.14062 366.16211 C 112.91284 371.85241 112.62663 378.07278 113.43555 384.08203 C 119.19021 372.13247 127.17393 360.88032 138.83789 354.06055 C 161.8714 339.62789 193.88622 337.71701 216.21094 354.61328 C 221.89998 359.22744 216.9152 351.26771 215.32227 348.53516 C 206.13724 335.16631 188.81783 329.98125 173.26367 330.30859 z M 422.09961 337.6875 C 407.66934 338.29777 393.26996 339.73022 378.99219 341.89844 C 389.93627 346.09524 400.8758 350.68116 411.43555 355.56055 C 424.3793 355.04064 437.42214 355.12586 450.41016 355.25781 C 441.262 349.04049 431.99505 342.41046 422.09961 337.6875 z M 354.19727 341.2207 C 347.40936 343.42915 345.41501 352.56991 346.37891 358.91406 C 347.72766 365.27701 356.26734 364.29972 360.73438 367.22852 C 390.77275 379.42728 420.55701 393.68475 446.39453 413.23438 C 449.3798 415.01329 451.11434 419.57617 455.1875 418.64844 C 456.32085 414.9587 459.32194 411.41422 459.37109 407.12109 C 460.46831 401.4385 459.10765 394.90624 453.60547 391.89453 C 425.76561 366.46157 390.86007 349.3707 354.19727 341.2207 z M 179.74219 346.55078 C 178.99237 346.54065 178.2431 346.54232 177.49609 346.55664 C 153.89934 347.12673 128.55256 359.56466 119.39648 382.36133 C 118.20988 385.89003 116.05256 390.43692 120.80859 392.05859 C 123.02636 393.30043 123.76981 387.96854 125.62109 386.54688 C 144.27011 361.26575 181.44267 351.60187 209.98633 364.59766 C 212.91938 365.37216 216.85212 370.62993 217.66602 365.25781 C 219.40952 361.55059 213.95413 358.9269 211.55078 356.44336 C 202.46519 349.6405 190.98947 346.70275 179.74219 346.55078 z M 273.44531 376.10156 C 272.65104 376.69531 271.85677 377.28906 271.0625 377.88281 L 271.06055 377.88281 C 242.98444 398.86597 214.90782 419.84844 186.83203 440.83203 C 189.82594 452.33308 192.82294 463.83333 195.81836 475.33398 C 224.68981 453.75677 253.56093 432.1791 282.43359 410.60352 C 279.43533 399.10327 276.44187 387.60226 273.44531 376.10156 z M 408.59766 396.17773 C 393.94153 396.84489 379.31555 398.27195 364.80859 400.45898 C 375.8059 404.67407 386.79958 409.28547 397.33008 414.17773 C 410.89542 413.66078 424.5648 413.66599 438.17188 414.02148 C 428.58404 407.72704 418.90527 400.99376 408.59766 396.17773 z M 340.20312 399.81641 C 333.87741 401.48469 331.80456 409.7361 331.98438 415.56055 C 331.66947 420.55334 336.45524 422.77195 340.6582 423.51953 C 372.5813 435.87606 403.90063 450.69103 431.51953 471.12305 C 434.85683 472.99348 436.71102 478.01925 441.09766 477.19141 C 442.25164 473.50978 445.21963 469.95001 445.28125 465.66211 C 446.38268 459.99488 445.04727 453.47514 439.53711 450.48438 C 411.68858 425.07437 376.8269 408.09538 340.20312 399.81641 z M 75.818359 427.57617 L 76.568359 430.45508 C 79.314811 440.99665 82.058566 451.53893 84.806641 462.08008 C 120.53496 466.83155 156.26383 471.57885 191.99219 476.33008 C 188.99552 464.82893 186.00186 453.32699 183.00391 441.82617 C 147.27559 437.0747 111.54671 432.3274 75.818359 427.57617 z M 381.20898 454.23438 C 361.70654 454.46313 342.2887 456.50352 322.91602 458.5918 C 331.34486 469.73602 346.68911 471.337 359.63672 471.72656 C 381.94203 470.69319 404.16075 472.29796 426.43164 474.24609 C 416.01453 467.14016 405.37812 459.97668 394.12695 454.42969 C 389.82409 454.23561 385.51575 454.19503 381.20898 454.23438 z "
         transform="matrix(2.1900315,0.57044758,-0.57044758,2.1900315,102.77779,-663.35596)"
         id="path14" />
    </g>
    <g
       id="g20"
       class=""
       transform="matrix(0.90911493,0.70251411,-0.70251411,0.90911493,-353.70973,-595.98321)"
       style="fill:#020101;fill-opacity:1;stroke-width:0.87038302" />
    <g
       id="g24"
       class=""
       transform="matrix(0.45910887,-0.28099167,0.28099167,0.45910887,219.21013,303.3649)"
       style="fill:#020101;fill-opacity:1;stroke-width:1.85779512" />
    <g
       id="g28"
       class=""
       transform="matrix(0.50148733,0,0,0.50148733,16.90854,21.284908)"
       style="fill:#020101;fill-opacity:1;stroke-width:1.99406826" />
  </g>
  <g
     class=""
     style="fill:#7c593f;fill-opacity:1;stroke-width:2.26310611"
     transform="matrix(0.42760285,-0.11137968,0.11137968,0.42760285,29.935451,295.10102)"
     id="g4">
    <path
       d="M 256,31.365 29.44,123.697 v 179.9 L 256,395.926 482.56,303.596 v -179.9 z m 0,73.93 c 38.765,0 74.22,10.93 100.89,29.756 26.72,18.864 45.11,46.74 45.11,78.596 0,31.856 -18.39,59.733 -45.11,78.596 C 330.22,311.067 294.764,322 256,322 217.236,322 181.78,311.067 155.11,292.242 128.39,273.38 110,245.502 110,213.646 c 0,-31.855 18.39,-59.732 45.11,-78.595 26.67,-18.824 62.125,-29.755 100.89,-29.755 z m 0,18 c -35.36,0 -67.328,10.1 -90.51,26.463 -21.357,15.076 -35.23,35.528 -37.23,58.207 7.18,-14.2 18.19,-26.816 31.83,-37.047 C 185.01,152.228 218.83,141 256,141 c 37.17,0 70.99,11.227 95.91,29.918 13.64,10.23 24.65,22.846 31.83,37.047 -2,-22.68 -15.873,-43.13 -37.23,-58.207 C 323.328,133.394 291.36,123.295 256,123.295 Z M 256,159 c -33.522,0 -63.704,10.264 -85.11,26.318 -16.03,12.024 -27.058,27.025 -31.585,43.573 5.897,-7.35 12.9,-14.06 20.785,-19.972 C 185.01,190.228 218.83,179 256,179 c 37.17,0 70.99,11.227 95.91,29.918 7.884,5.913 14.888,12.622 20.785,19.973 -4.527,-16.547 -15.554,-31.548 -31.586,-43.572 C 319.703,169.264 289.52,159 256,159 Z m 0,38 c -33.522,0 -63.704,10.264 -85.11,26.318 -12.542,9.407 -22.014,20.638 -27.714,33.004 0.83,1.093 1.7,2.168 2.59,3.233 4.355,-4.525 9.147,-8.754 14.324,-12.637 C 185.01,228.228 218.83,217 256,217 c 37.17,0 70.99,11.227 95.91,29.918 5.177,3.883 9.97,8.112 14.324,12.637 0.89,-1.065 1.76,-2.14 2.59,-3.233 -5.7,-12.366 -15.172,-23.597 -27.715,-33.004 C 319.703,207.264 289.52,197 256,197 Z M 29.44,323.033 v 70.916 L 247,482.612 v -70.916 z m 453.12,0 L 265,411.7 v 70.913 l 217.56,-88.664 v -70.917 z"
       id="path2"
       style="fill:#7c593f;fill-opacity:1;stroke-width:2.26310611"
       inkscape:connector-curvature="0" />
  </g>
  <g
     id="g824"
     class=""
     transform="matrix(0.90911493,0.70251411,-0.70251411,0.90911493,-353.70973,-595.98321)"
     style="fill:#7c593f;fill-opacity:1;stroke-width:0.87038302">
    <path
       id="path822"
       d="m 896.30788,34.140838 1.842,18.593 -34.593,-17.81 c -11.45,2.664 -21.948,7.76 -29.408,14.624 -7.198,6.625 -11.776,14.544 -12.687,24.594 l 111.563,-13.532 c -3.744,-9.308 -10.448,-15.842 -19.25,-20.53 -5.2,-2.77 -11.146,-4.75 -17.47,-5.94 z m 5.592,49.062 -43.343,5.28 c 1.224,13.065002 2.98,26.084002 5.28,38.940002 l 40.063,-29.220002 c -0.582,-5.014 -1.26,-10.008 -2,-15 z m 4,36.656002 -37.968,27.72 c 2.35,10.382 5.055,20.63 8.125,30.655 l 30.81,-22.467 c 0.176,-11.902 -0.154,-23.9 -0.967,-35.907 z m -0.062,59.785 -23.563,17.187 c 4.596,12.718 9.778,25.015 15.594,36.75 3.98,-17.394 6.615,-35.487 7.97,-53.938 z"
       inkscape:connector-curvature="0"
       style="fill:#7c593f;fill-opacity:1;stroke-width:0.87038302"
       sodipodi:nodetypes="ccccccccccccccccccccccccc" />
  </g>
  <g
     id="g878"
     class=""
     transform="matrix(0.45910887,-0.28099167,0.28099167,0.45910887,219.21013,303.3649)"
     style="fill:#7c593f;fill-opacity:1;stroke-width:1.85779512">
    <path
       id="path876"
       d="m 326.4,26.52 c -0.7,0 -1.7,0.14 -2.9,0.44 -3.4,0.82 -8,3.38 -11.7,6.89 -3.8,3.51 -6.7,7.92 -7.9,11.34 -1.1,3.41 -0.8,4.92 0.5,6.57 27.4,33.77 52.6,72.04 71.9,105.74 19.3,33.8 32.7,62.2 36.6,79.9 0.4,1.8 0.7,2 0.7,1.9 1.2,0 5.7,-1.7 9.9,-5.2 4.3,-3.5 8.6,-8.6 11.1,-13.3 2.6,-4.7 3.1,-8.8 2.6,-10.4 C 422.1,155.1 394.6,93.99 329.3,27.83 c -0.7,-0.67 -1.3,-1.09 -2.2,-1.24 -0.2,0 -0.4,-0.1 -0.7,-0.1 z m 53.2,30.97 c 11,13.92 20.6,27.66 28.9,41.17 13,7.24 28.5,16.34 43.9,26.04 15.2,9.4 29.4,18.9 40.9,27.4 l -1.8,-28.2 C 475.1,107.6 446.5,90.35 417.4,75.59 404.3,68.94 391.6,62.98 379.6,57.49 Z M 247.1,105.8 c -0.7,0 -1.7,0.1 -2.9,0.4 -3.4,0.8 -7.9,3.4 -11.7,6.9 -3.7,3.5 -6.6,7.9 -7.7,11.3 -1.1,3.3 -0.9,4.8 0.5,6.5 27.4,33.8 52.6,72 71.9,105.7 19.3,33.8 32.6,62.3 36.6,79.8 v 0.1 c 0.4,1.8 0.7,2 0.7,1.9 1.1,0 5.6,-1.7 9.9,-5.2 4.3,-3.5 8.5,-8.6 11.1,-13.3 2.5,-4.7 3,-8.9 2.6,-10.4 C 342.8,234.3 315.3,173.3 250,107.1 c -0.7,-0.7 -1.3,-1.1 -2.2,-1.2 -0.2,-0.1 -0.4,-0.1 -0.7,-0.1 z m 53.1,30.9 c 11.1,14 20.7,27.8 29.1,41.3 13,7.3 28.5,16.4 43.9,26 3.5,2.2 7,4.4 10.4,6.6 -5.8,-12.7 -13.6,-27.7 -22.7,-43.7 -7.4,-4.2 -15,-8.2 -22.7,-12.1 -13.2,-6.6 -25.9,-12.6 -38,-18.1 z m -126.5,57.1 c -0.7,0 -1.7,0.1 -2.9,0.4 -3.4,0.8 -8,3.4 -11.7,6.9 -3.8,3.5 -6.7,7.9 -7.9,11.3 -1.1,3.4 -0.8,4.9 0.5,6.5 27.4,33.7 52.6,71.9 71.9,105.7 19.3,33.8 32.7,62.2 36.6,79.9 0.4,1.8 0.7,2 0.7,1.9 1.1,0 5.7,-1.7 9.9,-5.2 4.3,-3.5 8.6,-8.6 11.1,-13.3 2.6,-4.8 3.1,-8.9 2.6,-10.5 C 269.3,322.3 241.9,261.3 176.6,195 c -0.7,-0.6 -1.3,-1 -2.2,-1.2 z m 53.1,30.9 c 11.1,13.9 20.6,27.7 29,41.2 13,7.3 28.5,16.4 43.9,26 2.7,1.7 5.4,3.4 8,5 -5.2,-11.9 -12.5,-26.6 -21.3,-42.5 -7.1,-4 -14.4,-7.9 -21.8,-11.6 -13.1,-6.7 -25.8,-12.6 -37.8,-18.1 z M 94.5,272.9 c -0.77,0 -1.71,0.2 -2.97,0.5 -3.34,0.8 -7.91,3.3 -11.67,6.8 -3.76,3.5 -6.68,7.9 -7.79,11.3 -1.1,3.4 -0.86,4.9 0.48,6.5 27.43,33.8 52.65,72 71.95,105.7 19.3,33.8 32.7,62.2 36.6,79.8 v 0.1 c 0.4,1.8 0.7,2 0.7,1.9 1.2,0 5.7,-1.7 9.9,-5.2 4.3,-3.5 8.6,-8.6 11.1,-13.3 2.6,-4.7 3.1,-8.8 2.6,-10.4 -15.3,-55.1 -42.7,-116.1 -108.02,-182.4 -0.7,-0.6 -1.3,-1.1 -2.17,-1.2 -0.22,-0.1 -0.46,-0.1 -0.71,-0.1 z m 53.1,30.9 c 11.1,14 20.7,27.8 29,41.3 13,7.3 28.5,16.4 43.9,26 3.5,2.2 7,4.4 10.4,6.6 C 225.1,365 217.4,350 208.3,334 c -7.4,-4.1 -15.1,-8.2 -22.8,-12.1 -13.1,-6.6 -25.8,-12.6 -37.9,-18.1 z M 18.72,353 c 0.34,2.1 1.03,4.8 2.88,8.4 5.75,11.3 20.09,27.8 46.74,42.6 23.89,13.3 46.86,28.4 85.06,56.4 -6,-13.5 -14.4,-30.1 -24.5,-47.7 l -0.3,-0.6 C 92.89,388 46.1,366 18.72,353 Z"
       inkscape:connector-curvature="0"
       style="fill:#7c593f;fill-opacity:1;stroke-width:1.85779512" />
  </g>
  <g
     id="g892"
     class=""
     transform="matrix(0.50148733,0,0,0.50148733,16.90854,21.284908)"
     style="fill:#7c593f;fill-opacity:1;stroke-width:1.99406826">
    <path
       style="fill:#7c593f;fill-opacity:1;stroke-width:0.99999994"
       d="M 101.91016 40.826172 L 101.91016 40.828125 L 100.70312 45.341797 L 98.541016 53.412109 L 81.021484 48.726562 L 79.328125 55.009766 L 65.914062 51.419922 L 63.484375 60.462891 L 76.914062 64.068359 L 75.472656 69.412109 L 92.994141 74.097656 L 86.851562 97.023438 L 69.330078 92.337891 L 67.669922 98.498047 L 54.253906 94.908203 L 51.824219 103.9668 L 65.240234 107.55469 L 63.783203 113.02539 L 81.302734 117.71094 L 75.019531 141.125 L 57.513672 136.43945 L 56.025391 142.01758 L 42.59375 138.41406 L 40.164062 147.45703 L 53.595703 151.06055 L 51.964844 157.125 L 69.470703 161.8125 L 63.453125 184.25391 L 45.947266 179.56641 L 44.505859 184.95703 L 31.076172 181.35352 L 28.662109 190.39648 L 42.078125 193.98438 L 40.400391 200.26758 L 57.90625 204.95508 L 55.664062 213.32227 L 54.457031 217.85156 L 58.986328 219.05859 L 186.78711 253.30078 L 191.31641 254.50781 L 192.52344 249.97852 L 194.76367 241.625 L 212.22266 246.29688 L 213.89844 240.02734 L 227.45508 243.66406 L 229.88477 234.62109 L 216.32812 230.98438 L 217.76953 225.59375 L 200.3125 220.92383 L 206.33008 198.48242 L 223.78711 203.15234 L 225.41797 197.08789 L 238.97461 200.72266 L 241.38672 191.68164 L 227.83203 188.04492 L 229.33594 182.45117 L 211.87695 177.7793 L 218.14648 154.38281 L 235.60547 159.05273 L 237.06055 153.59961 L 250.61719 157.23438 L 253.04688 148.17578 L 239.49023 144.54102 L 241.13672 138.36719 L 223.69336 133.69727 L 229.83789 110.76758 L 247.2793 115.43945 L 248.70508 110.11133 L 262.27539 113.74609 L 264.70508 104.6875 L 251.13281 101.05273 L 252.82617 94.736328 L 235.38477 90.066406 L 237.54688 82.011719 L 238.76758 77.482422 L 234.24023 76.259766 L 106.43945 42.033203 L 101.91016 40.826172 z M 205.10742 87.873047 L 214.16602 90.302734 L 177.96484 225.42383 L 176.74219 229.95117 L 172.22852 228.74609 L 79.767578 203.9668 L 82.195312 194.91016 L 170.11328 218.48047 L 205.10742 87.873047 z "
       transform="matrix(1.9940683,0,0,1.9940683,-33.716784,-42.443561)"
       id="path24" />
  </g>
</svg>
