<?xml version="1.0" encoding="UTF-8" standalone="no"?>
<svg
   xmlns:dc="http://purl.org/dc/elements/1.1/"
   xmlns:cc="http://creativecommons.org/ns#"
   xmlns:rdf="http://www.w3.org/1999/02/22-rdf-syntax-ns#"
   xmlns:svg="http://www.w3.org/2000/svg"
   xmlns="http://www.w3.org/2000/svg"
   xmlns:sodipodi="http://sodipodi.sourceforge.net/DTD/sodipodi-0.dtd"
   xmlns:inkscape="http://www.inkscape.org/namespaces/inkscape"
   style="height: 512px; width: 512px;"
   viewBox="0 0 512 512"
   version="1.1"
   id="svg6"
   sodipodi:docname="scraps.svg"
   inkscape:version="0.92.3 (2405546, 2018-03-11)"
   inkscape:export-filename="D:\Varie\SlothMachine\Game\Assets\Resources\UI\scraps.png"
   inkscape:export-xdpi="300"
   inkscape:export-ydpi="300">
  <metadata
     id="metadata12">
    <rdf:RDF>
      <cc:Work
         rdf:about="">
        <dc:format>image/svg+xml</dc:format>
        <dc:type
           rdf:resource="http://purl.org/dc/dcmitype/StillImage" />
        <dc:title />
      </cc:Work>
    </rdf:RDF>
  </metadata>
  <defs
     id="defs10">
    <filter
       inkscape:collect="always"
       style="color-interpolation-filters:sRGB"
       id="filter845"
       x="-0.011746415"
       width="1.0234928"
       y="-0.012264776"
       height="1.0245296">
      <feGaussianBlur
         inkscape:collect="always"
         stdDeviation="2.2502459"
         id="feGaussianBlur847" />
    </filter>
  </defs>
  <sodipodi:namedview
     pagecolor="#ffffff"
     bordercolor="#666666"
     borderopacity="1"
     objecttolerance="10"
     gridtolerance="10"
     guidetolerance="10"
     inkscape:pageopacity="0"
     inkscape:pageshadow="2"
     inkscape:window-width="640"
     inkscape:window-height="480"
     id="namedview8"
     showgrid="false"
     inkscape:zoom="1.2415801"
     inkscape:cx="236.24535"
     inkscape:cy="186.14135"
     inkscape:current-layer="svg6" />
  <g
     id="g843"
     style="fill:#020101;fill-opacity:1;filter:url(#filter845)"
     transform="translate(8.4680253e-4,-7.6527191e-4)">
    <g
       class=""
       style="fill:#020101;fill-opacity:1;stroke-width:2.26310611"
       transform="matrix(0.42760285,-0.11137968,0.11137968,0.42760285,29.935451,295.10102)"
       id="g16">
      <path
         style="fill:#020101;fill-opacity:1;stroke-width:2.26310611"
         d="m 901.10236,-378.52131 c -29.26836,-7.40274 -61.66764,-2.77629 -86.37649,15.07431 71.13848,72.08814 142.28008,144.17319 213.41923,216.26069 25.9967,-38.62788 19.5029,-90.01224 -1.8728,-129.09979 -7.6377,-4.29466 -19.766,16.78973 -29.17728,22.51395 -11.70013,14.00812 -7.95993,-19.26699 -12.39907,-27.49434 -4.52869,-19.96376 -6.07577,-41.7151 -12.33371,-60.64222 -20.85989,-16.90163 -45.00285,-30.38627 -71.25988,-36.6126 z M 298.7417,-518.04576 c -6.61528,12.17035 -11.85747,29.35495 -26.10008,13.88473 -11.50529,-6.31816 -24.89735,-19.49263 -29.20659,0.36193 -11.35182,-3.25769 -27.79802,-25.03624 -32.92583,-5.68336 -10.78148,12.01218 -9.91417,20.82567 6.37614,25.40116 21.18803,3.27715 -4.0273,19.28842 15.25661,23.07488 8.19276,7.77404 34.79157,10.47215 20.27072,24.51003 -8.24855,7.69372 -10.85413,35.84969 -24.34549,24.53224 -10.72203,-2.47881 -26.74091,-24.21898 -32.30184,-7.92653 -6.56556,12.91462 -25.1575,-17.88727 -32.2433,-6.89912 -3.6536,10.06739 -21.19815,23.95556 -2.88333,27.97038 22.8691,3.95204 7.17713,18.55767 19.05515,25.54309 7.20294,8.04611 35.26886,10.34593 23.34793,23.65933 -7.89757,7.98668 -11.38339,31.99794 -22.10716,29.71914 -10.57551,-3.99592 -23.73194,-17.3376 -32.84822,-16.04906 -4.72136,18.31811 -20.04429,-1.81589 -30.70586,-5.03474 -4.05994,2.6575 -20.634989,22.36756 -12.99125,27.40416 10.96185,7.04476 31.35052,11.49733 16.39094,25.66837 11.87479,6.75534 23.78102,13.50122 35.66738,20.25305 -7.16982,12.61483 -14.33966,25.22966 -21.50951,37.84448 -11.8899,-6.74966 -23.7801,-13.49877 -35.66979,-20.24879 -4.588154,20.42875 -20.281186,0.5724 -31.610126,-3.45467 -5.145709,2.24592 -19.433776,22.60797 -12.953238,27.41507 11.338512,7.05066 31.382951,11.69675 16.143203,26.08833 11.889072,6.74458 23.774713,13.49524 35.662371,20.24228 -2.32962,10.2317 -23.26612,25.6316 -7.03387,30.74495 92.94877,52.766355 185.85831,105.603969 278.81894,158.3493749 7.60944,-7.1037728 9.97664,-33.3635179 22.76166,-21.7768519 9.45854,2.046595 23.30837,19.9860676 29.93445,11.78322377 4.75426,-17.90573177 20.20454,2.98224203 30.65723,5.74566483 4.05589,-2.6670924 20.62705,-22.3697426 12.98297,-27.4069286 -9.2354,-7.205508 -32.46902,-10.554372 -17.44987,-24.442566 -11.84742,-6.727438 -23.71256,-13.456406 -35.56675,-20.184602 7.16982,-12.614831 14.33966,-25.229656 21.5095,-37.844455 11.8539,6.729051 23.71199,13.45071 35.56323,20.184476 4.33344,-21.044606 19.06293,-4.251437 30.64138,1.065703 9.63331,4.064483 12.1716,-17.599719 18.91768,-24.021739 -6.93215,-7.95093 -34.71676,-10.1701 -23.35832,-23.14887 3.18847,-10.28122 -20.16708,-13.25216 -27.2867,-20.694 -13.44546,-6.29058 8.87385,-22.44217 10.71884,-32.94861 4.56532,-20.02612 20.40927,0.86344 31.42621,4.24207 12.9895,15.54876 13.26557,-14.9453 26.12352,0.14878 13.29932,12.07152 22.56291,9.47941 27.83787,-7.60637 12.3212,-13.55884 -14.68273,-16.29519 -22.64861,-24.27172 14.1554,-13.55654 -3.26118,-18.39386 -14.58996,-24.9131 -20.80624,-4.25772 -8.77877,-17.56192 -1.59104,-29.53264 5.08902,-19.155 16.03905,-17.04335 29.44546,-6.0181 14.56881,17.57875 17.84064,-5.81982 29.88606,2.61875 12.67103,9.74838 23.97075,14.52203 28.71938,-4.50601 14.41971,-14.13751 -10.37861,-17.47739 -19.56648,-25.11444 5.78534,-11.3225 1.94669,-19.99701 -14.43717,-25.21279 -16.74894,-4.45678 -16.69327,-13.54618 -6.51594,-25.40928 12.81245,-12.55687 -9.86028,-15.43897 -17.74237,-22.3101 -87.90227,-49.90252 -175.77698,-99.85868 -263.6961,-149.72814 l -1.11647,1.96854 z m 247.67353,170.25751 C 486.58061,-242.49629 426.746,-137.20436 366.91138,-31.912411 288.88981,-76.228712 210.86825,-120.54504 132.84669,-164.86134 c 59.82286,-105.29349 119.6457,-210.58699 179.46856,-315.88048 78.03332,44.31785 156.06666,88.63571 234.09998,132.95357 z m 301.89087,81.0192 c -26.74787,24.98647 -52.36318,51.17616 -76.83044,78.39686 44.44564,12.90715 88.89116,25.8147 133.33899,38.71439 11.106,-10.83016 21.96631,-21.90747 32.71753,-33.08888 -28.66779,-29.02257 -57.3384,-58.04236 -86.00886,-87.06227 l -1.64495,1.55428 z m -350.39691,-89.37394 c -49.63548,87.37756 -99.27097,174.75512 -148.90642,262.132665 -59.69929,-33.923925 -119.39772,-67.849315 -179.0975,-101.772315 -3.34056,11.08814 -24.2353,27.01053 -5.11677,31.91297 65.19416,37.03161 130.37875,74.080147 195.57916,111.100787 55.41864,-97.419627 110.72404,-194.905177 166.09974,-292.349837 -8.47359,-1.98887 -23.19491,-19.2116 -28.55821,-11.02427 z m 243.34563,203.05843 c -18.9395,22.908 -36.92089,46.5968 -54.03478,70.89666 34.50853,10.028977 69.02014,20.047274 103.5309,30.068577 25.92149,-20.00813 52.77655,-40.059637 75.78531,-62.933667 -1.76732,-10.74872 -25.20192,-9.17202 -35.72434,-14.93902 -29.22246,-8.46755 -58.44341,-16.94024 -87.66675,-25.40468 l -1.43244,1.75208 z m -78.83533,108.276701 c -21.02012,32.943808 -39.87789,67.239527 -56.71277,102.50128 50.22236,-22.663505 98.35844,-49.8008098 144.06844,-80.546687 -28.51178,-8.279721 -57.02383,-16.558485 -85.53698,-24.833489 l -1.20867,1.913291 z M 967.59597,71.347095 c -36.46663,-8.862619 -73.64023,-14.630387 -110.91958,-18.74704 21.53319,15.502983 42.93819,31.737374 63.23412,48.503545 42.69461,9.54737 85.25269,20.52913 126.34759,35.35861 -6.2287,-14.25449 -9.7684,-30.90282 -17.6176,-43.715144 -19.2016,-9.971261 -40.15685,-16.096958 -61.04453,-21.399971 z M 802.91999,37.081425 c -11.16592,-1.056465 -18.98553,10.854388 -23.98887,20.691295 -5.12192,9.653075 -5.60674,24.529662 7.0629,28.608471 63.83863,45.266779 125.00842,96.648879 174.65136,157.126759 7.1517,6.29742 8.3119,19.78925 19.13629,20.87525 4.62756,-7.40251 13.1579,-13.50367 15.73796,-22.85871 5.64367,-11.79132 6.41327,-26.8108 -3.89916,-36.53862 C 945.32452,133.1831 878.52025,76.076705 802.91999,37.081425 Z m 87.56167,151.559515 c -32.45867,-7.06971 -65.36618,-12.04759 -98.38444,-15.61444 21.64163,15.50801 43.07716,31.8297 63.52518,48.5611 30.01168,6.60957 59.95497,14.41619 89.55852,22.96687 -17.40801,-19.28392 -34.87971,-39.43634 -54.69926,-55.91353 z M 254.29041,27.172583 C 177.83169,58.333815 101.37224,89.493266 24.913955,120.65559 c -0.0033,61.99472 -0.0038,123.98943 -1e-5,185.98414 77.027935,31.39445 154.058125,62.78341 231.087105,94.17538 77.02638,-31.39478 154.05579,-62.78215 231.08255,-94.17598 0.003,-61.9947 0.004,-123.98941 1e-5,-185.98412 C 410.05599,89.259238 333.02626,57.868644 255.99762,26.475366 Z M 738.38175,157.49112 c -15.48086,0.51054 -24.77283,18.39974 -26.9414,32.02642 -2.97737,15.22883 16.5887,18.8471 24.69516,27.22946 59.5637,44.26303 117.2591,92.7068 163.37444,151.20408 5.31121,5.39428 6.66315,16.37063 16.01883,16.60555 4.53353,-7.47127 13.20225,-13.46176 15.70151,-22.85909 6.40221,-12.56129 5.52856,-28.17514 -5.08634,-38.3408 C 879.68998,252.58585 813.3388,196.08283 738.38175,157.49112 Z M 303.38994,115.70195 c 42.21123,10.3574 86.12217,40.64865 93.28322,86.82399 6.80459,44.36926 -27.58438,83.21642 -66.16435,99.55975 -59.42599,25.75007 -134.2075,20.30522 -184.28118,-22.72337 -30.03337,-24.81561 -41.95758,-70.80554 -21.19902,-105.14149 28.50308,-48.70036 89.68092,-67.42325 143.31734,-64.02027 11.81847,0.73755 23.57462,2.54766 35.04399,5.50139 z m -4.86479,8.0325 c -53.78947,-12.51908 -117.51728,-2.0663 -155.70945,40.45284 -13.71787,15.69929 -21.4453,36.82408 -18.80317,57.75623 13.37162,-22.46779 29.25726,-44.68741 53.26159,-56.81054 58.86484,-32.01897 140.14857,-25.74192 187.62591,23.61288 9.50563,9.75256 14.78797,22.50548 23.07123,33.15936 5.25842,-41.32007 -28.45359,-75.57076 -64.20506,-89.86042 -8.16215,-3.4713 -16.62122,-6.22581 -25.24105,-8.31035 z m -4.71644,35.13427 c -52.06847,-12.224 -114.66664,0.59178 -147.74386,45.36416 -8.12493,11.19111 -12.30014,24.65067 -13.95654,38.27256 19.41948,-22.88718 43.32284,-42.97545 72.75761,-51.2573 58.67719,-18.46857 129.88025,-4.39223 169.13365,45.34622 9.82704,13.35045 3.45127,-6.92362 1.52148,-13.81668 -12.48926,-34.51777 -47.46151,-55.75303 -81.71234,-63.90896 z M 834.55798,316.9766 c -31.95088,-6.8952 -64.30311,-11.97218 -96.80873,-15.36843 21.57382,15.43415 42.91571,31.71789 63.25846,48.42769 28.6438,6.24511 57.15941,13.87202 85.5283,21.56998 -16.48809,-18.83467 -33.00091,-38.64097 -51.97803,-54.62924 z m -150.7238,-30.99689 c -16.12554,0.96443 -25.70755,19.84531 -27.21559,34.28906 -0.67592,14.70445 18.58098,17.43398 26.69319,26.39635 58.82624,43.85099 115.92254,92.06624 161.35549,149.61948 5.52306,5.59881 6.72069,16.58215 16.17026,16.87392 4.58687,-7.43413 13.18127,-13.48469 15.73793,-22.85872 5.64455,-11.81915 6.38753,-26.90028 -3.94439,-36.63473 -46.462,-71.58016 -113.15333,-128.92239 -188.79689,-167.68536 z m -390.025,-89.11287 c -52.00283,-12.2122 -114.61185,0.56853 -147.66824,45.2709 -4.61165,7.05107 -11.92862,15.77598 -2.43784,22.04056 4.14858,3.98479 8.8205,-7.26615 13.68586,-9.32357 55.2635,-44.72818 142.18533,-44.68734 197.28342,0.0565 5.98167,3.36935 11.59517,17.12745 16.44215,5.82662 5.9331,-7.12435 -4.51767,-15.98235 -8.36436,-22.79236 -17.08487,-21.42008 -42.63478,-34.76223 -68.94099,-41.07862 z m 187.03917,121.97892 c -73.45735,29.93783 -146.91543,59.87386 -220.37234,89.81281 -0.004,26.89552 -5.4e-4,53.79106 -10e-4,80.68659 75.53806,-30.78512 151.07565,-61.57144 226.61543,-92.35232 -0.006,-26.89626 -0.005,-53.79254 -0.007,-80.68881 -2.07818,0.84724 -4.15636,1.69448 -6.23454,2.54173 z m 290.77429,118.52415 c -32.47796,-6.89947 -65.32338,-12.1175 -98.34165,-15.60329 21.67995,15.50456 43.12592,31.875 63.39726,48.5963 30.00342,6.60618 59.9368,14.41523 89.53394,22.95591 -17.40702,-19.25438 -34.76285,-39.52171 -54.58955,-55.94892 z M 619.7608,406.32322 c -14.80518,0.0451 -24.0518,16.93351 -26.98053,29.7918 -3.53777,10.75473 5.67497,18.34245 14.45313,22.37724 62.86384,45.27165 123.00565,95.58407 171.83651,156.08597 6.24181,6.00006 7.43559,18.06437 17.51471,18.75372 4.62744,-7.40458 13.1581,-13.50752 15.73907,-22.86301 5.64503,-11.7831 6.43627,-26.82211 -3.92507,-36.51524 C 761.90454,502.41885 695.24531,445.34637 619.7608,406.32322 Z M 24.914614,323.03306 c 0.0014,24.65309 -0.0035,49.30618 0.0017,73.95925 75.535676,30.78701 151.074946,61.56519 226.610846,92.35169 -0.002,-26.89731 0.003,-53.79465 -0.002,-80.69198 -75.53568,-30.787 -151.07494,-61.56518 -226.610826,-92.35168 8.9e-5,2.24424 1.73e-4,4.48849 2.62e-4,6.73272 z M 678.52232,548.89198 c -42.84147,-10.62415 -86.53107,-17.23247 -130.14912,-23.71019 12.10223,29.21442 44.79337,41.47371 72.92682,49.7128 49.43881,10.46089 97.18307,26.65 144.84572,43.62085 -18.76024,-21.50463 -37.96792,-43.26041 -59.44407,-61.8267 -9.31269,-2.8796 -18.72494,-5.42615 -28.17935,-7.79676 z"
         id="path14"
         inkscape:connector-curvature="0" />
    </g>
    <g
       id="g20"
       class=""
       transform="matrix(0.90911493,0.70251411,-0.70251411,0.90911493,-353.70973,-595.98321)"
       style="fill:#020101;fill-opacity:1;stroke-width:0.87038302" />
    <g
       id="g24"
       class=""
       transform="matrix(0.45910887,-0.28099167,0.28099167,0.45910887,219.21013,303.3649)"
       style="fill:#020101;fill-opacity:1;stroke-width:1.85779512" />
    <g
       id="g28"
       class=""
       transform="matrix(0.50148733,0,0,0.50148733,16.90854,21.284908)"
       style="fill:#020101;fill-opacity:1;stroke-width:1.99406826" />
  </g>
  <g
     class=""
     style="fill:#7c593f;fill-opacity:1;stroke-width:2.26310611"
     transform="matrix(0.42760285,-0.11137968,0.11137968,0.42760285,29.935451,295.10102)"
     id="g4">
    <path
       d="M 256,31.365 29.44,123.697 v 179.9 L 256,395.926 482.56,303.596 v -179.9 z m 0,73.93 c 38.765,0 74.22,10.93 100.89,29.756 26.72,18.864 45.11,46.74 45.11,78.596 0,31.856 -18.39,59.733 -45.11,78.596 C 330.22,311.067 294.764,322 256,322 217.236,322 181.78,311.067 155.11,292.242 128.39,273.38 110,245.502 110,213.646 c 0,-31.855 18.39,-59.732 45.11,-78.595 26.67,-18.824 62.125,-29.755 100.89,-29.755 z m 0,18 c -35.36,0 -67.328,10.1 -90.51,26.463 -21.357,15.076 -35.23,35.528 -37.23,58.207 7.18,-14.2 18.19,-26.816 31.83,-37.047 C 185.01,152.228 218.83,141 256,141 c 37.17,0 70.99,11.227 95.91,29.918 13.64,10.23 24.65,22.846 31.83,37.047 -2,-22.68 -15.873,-43.13 -37.23,-58.207 C 323.328,133.394 291.36,123.295 256,123.295 Z M 256,159 c -33.522,0 -63.704,10.264 -85.11,26.318 -16.03,12.024 -27.058,27.025 -31.585,43.573 5.897,-7.35 12.9,-14.06 20.785,-19.972 C 185.01,190.228 218.83,179 256,179 c 37.17,0 70.99,11.227 95.91,29.918 7.884,5.913 14.888,12.622 20.785,19.973 -4.527,-16.547 -15.554,-31.548 -31.586,-43.572 C 319.703,169.264 289.52,159 256,159 Z m 0,38 c -33.522,0 -63.704,10.264 -85.11,26.318 -12.542,9.407 -22.014,20.638 -27.714,33.004 0.83,1.093 1.7,2.168 2.59,3.233 4.355,-4.525 9.147,-8.754 14.324,-12.637 C 185.01,228.228 218.83,217 256,217 c 37.17,0 70.99,11.227 95.91,29.918 5.177,3.883 9.97,8.112 14.324,12.637 0.89,-1.065 1.76,-2.14 2.59,-3.233 -5.7,-12.366 -15.172,-23.597 -27.715,-33.004 C 319.703,207.264 289.52,197 256,197 Z M 29.44,323.033 v 70.916 L 247,482.612 v -70.916 z m 453.12,0 L 265,411.7 v 70.913 l 217.56,-88.664 v -70.917 z"
       id="path2"
       style="fill:#7c593f;fill-opacity:1;stroke-width:2.26310611"
       inkscape:connector-curvature="0" />
  </g>
  <g
     id="g824"
     class=""
     transform="matrix(0.90911493,0.70251411,-0.70251411,0.90911493,-353.70973,-595.98321)"
     style="fill:#7c593f;fill-opacity:1;stroke-width:0.87038302">
    <path
       id="path822"
       d="m 896.30788,34.140838 1.842,18.593 -34.593,-17.81 c -11.45,2.664 -21.948,7.76 -29.408,14.624 -7.198,6.625 -11.776,14.544 -12.687,24.594 l 111.563,-13.532 c -3.744,-9.308 -10.448,-15.842 -19.25,-20.53 -5.2,-2.77 -11.146,-4.75 -17.47,-5.94 z m 5.592,49.062 -43.343,5.28 c 1.224,13.065002 2.98,26.084002 5.28,38.940002 l 40.063,-29.220002 c -0.582,-5.014 -1.26,-10.008 -2,-15 z m 4,36.656002 -37.968,27.72 c 2.35,10.382 5.055,20.63 8.125,30.655 l 30.81,-22.467 c 0.176,-11.902 -0.154,-23.9 -0.967,-35.907 z m -0.062,59.785 -23.563,17.187 c 4.596,12.718 9.778,25.015 15.594,36.75 3.98,-17.394 6.615,-35.487 7.97,-53.938 z"
       inkscape:connector-curvature="0"
       style="fill:#7c593f;fill-opacity:1;stroke-width:0.87038302"
       sodipodi:nodetypes="ccccccccccccccccccccccccc" />
  </g>
  <g
     id="g878"
     class=""
     transform="matrix(0.45910887,-0.28099167,0.28099167,0.45910887,219.21013,303.3649)"
     style="fill:#7c593f;fill-opacity:1;stroke-width:1.85779512">
    <path
       id="path876"
       d="m 326.4,26.52 c -0.7,0 -1.7,0.14 -2.9,0.44 -3.4,0.82 -8,3.38 -11.7,6.89 -3.8,3.51 -6.7,7.92 -7.9,11.34 -1.1,3.41 -0.8,4.92 0.5,6.57 27.4,33.77 52.6,72.04 71.9,105.74 19.3,33.8 32.7,62.2 36.6,79.9 0.4,1.8 0.7,2 0.7,1.9 1.2,0 5.7,-1.7 9.9,-5.2 4.3,-3.5 8.6,-8.6 11.1,-13.3 2.6,-4.7 3.1,-8.8 2.6,-10.4 C 422.1,155.1 394.6,93.99 329.3,27.83 c -0.7,-0.67 -1.3,-1.09 -2.2,-1.24 -0.2,0 -0.4,-0.1 -0.7,-0.1 z m 53.2,30.97 c 11,13.92 20.6,27.66 28.9,41.17 13,7.24 28.5,16.34 43.9,26.04 15.2,9.4 29.4,18.9 40.9,27.4 l -1.8,-28.2 C 475.1,107.6 446.5,90.35 417.4,75.59 404.3,68.94 391.6,62.98 379.6,57.49 Z M 247.1,105.8 c -0.7,0 -1.7,0.1 -2.9,0.4 -3.4,0.8 -7.9,3.4 -11.7,6.9 -3.7,3.5 -6.6,7.9 -7.7,11.3 -1.1,3.3 -0.9,4.8 0.5,6.5 27.4,33.8 52.6,72 71.9,105.7 19.3,33.8 32.6,62.3 36.6,79.8 v 0.1 c 0.4,1.8 0.7,2 0.7,1.9 1.1,0 5.6,-1.7 9.9,-5.2 4.3,-3.5 8.5,-8.6 11.1,-13.3 2.5,-4.7 3,-8.9 2.6,-10.4 C 342.8,234.3 315.3,173.3 250,107.1 c -0.7,-0.7 -1.3,-1.1 -2.2,-1.2 -0.2,-0.1 -0.4,-0.1 -0.7,-0.1 z m 53.1,30.9 c 11.1,14 20.7,27.8 29.1,41.3 13,7.3 28.5,16.4 43.9,26 3.5,2.2 7,4.4 10.4,6.6 -5.8,-12.7 -13.6,-27.7 -22.7,-43.7 -7.4,-4.2 -15,-8.2 -22.7,-12.1 -13.2,-6.6 -25.9,-12.6 -38,-18.1 z m -126.5,57.1 c -0.7,0 -1.7,0.1 -2.9,0.4 -3.4,0.8 -8,3.4 -11.7,6.9 -3.8,3.5 -6.7,7.9 -7.9,11.3 -1.1,3.4 -0.8,4.9 0.5,6.5 27.4,33.7 52.6,71.9 71.9,105.7 19.3,33.8 32.7,62.2 36.6,79.9 0.4,1.8 0.7,2 0.7,1.9 1.1,0 5.7,-1.7 9.9,-5.2 4.3,-3.5 8.6,-8.6 11.1,-13.3 2.6,-4.8 3.1,-8.9 2.6,-10.5 C 269.3,322.3 241.9,261.3 176.6,195 c -0.7,-0.6 -1.3,-1 -2.2,-1.2 z m 53.1,30.9 c 11.1,13.9 20.6,27.7 29,41.2 13,7.3 28.5,16.4 43.9,26 2.7,1.7 5.4,3.4 8,5 -5.2,-11.9 -12.5,-26.6 -21.3,-42.5 -7.1,-4 -14.4,-7.9 -21.8,-11.6 -13.1,-6.7 -25.8,-12.6 -37.8,-18.1 z M 94.5,272.9 c -0.77,0 -1.71,0.2 -2.97,0.5 -3.34,0.8 -7.91,3.3 -11.67,6.8 -3.76,3.5 -6.68,7.9 -7.79,11.3 -1.1,3.4 -0.86,4.9 0.48,6.5 27.43,33.8 52.65,72 71.95,105.7 19.3,33.8 32.7,62.2 36.6,79.8 v 0.1 c 0.4,1.8 0.7,2 0.7,1.9 1.2,0 5.7,-1.7 9.9,-5.2 4.3,-3.5 8.6,-8.6 11.1,-13.3 2.6,-4.7 3.1,-8.8 2.6,-10.4 -15.3,-55.1 -42.7,-116.1 -108.02,-182.4 -0.7,-0.6 -1.3,-1.1 -2.17,-1.2 -0.22,-0.1 -0.46,-0.1 -0.71,-0.1 z m 53.1,30.9 c 11.1,14 20.7,27.8 29,41.3 13,7.3 28.5,16.4 43.9,26 3.5,2.2 7,4.4 10.4,6.6 C 225.1,365 217.4,350 208.3,334 c -7.4,-4.1 -15.1,-8.2 -22.8,-12.1 -13.1,-6.6 -25.8,-12.6 -37.9,-18.1 z M 18.72,353 c 0.34,2.1 1.03,4.8 2.88,8.4 5.75,11.3 20.09,27.8 46.74,42.6 23.89,13.3 46.86,28.4 85.06,56.4 -6,-13.5 -14.4,-30.1 -24.5,-47.7 l -0.3,-0.6 C 92.89,388 46.1,366 18.72,353 Z"
       inkscape:connector-curvature="0"
       style="fill:#7c593f;fill-opacity:1;stroke-width:1.85779512" />
  </g>
  <g
     id="g892"
     class=""
     transform="matrix(0.50148733,0,0,0.50148733,16.90854,21.284908)"
     style="fill:#7c593f;fill-opacity:1;stroke-width:1.99406826">
    <path
       id="path890"
       d="m 169.5,38.97 -2.406,9 -4.313,16.093 -34.936,-9.344 -3.375,12.53 -26.75,-7.156 -4.845,18.03 26.78,7.19 -2.874,10.655 34.94,9.343 -12.25,45.718 -34.94,-9.343 -3.31,12.282 -26.75,-7.157 -4.845,18.062 26.75,7.156 -2.906,10.907 34.936,9.344 -12.53,46.69 -34.907,-9.345 -2.969,11.125 -26.78,-7.188 -4.845,18.032 26.78,7.187 -3.25,12.095 34.907,9.344 -12,44.75 -34.906,-9.345 -2.875,10.75 -26.78,-7.188 -4.813,18.032 26.75,7.155 -3.343,12.53 34.906,9.345 -4.47,16.688 -2.405,9.03 9.03,2.407 254.845,68.28 9.03,2.408 2.408,-9.032 4.468,-16.655 34.813,9.313 3.342,-12.5 27.032,7.25 4.844,-18.032 -27.032,-7.25 2.875,-10.75 -34.81,-9.312 12,-44.75 34.81,9.312 3.25,-12.094 27.033,7.25 4.812,-18.03 -27.03,-7.25 3,-11.157 -34.814,-9.313 12.5,-46.656 34.814,9.313 2.904,-10.876 27.03,7.25 4.845,-18.063 -27.03,-7.25 3.28,-12.31 -34.78,-9.314 12.25,-45.72 34.78,9.314 2.844,-10.625 27.06,7.25 4.845,-18.063 -27.063,-7.25 3.375,-12.593 -34.78,-9.314 4.312,-16.062 2.436,-9.03 -9.03,-2.44 -254.845,-68.25 -9.03,-2.405 z M 182.688,61.844 419.53,125.28 334.564,442.19 97.75,378.75 Z m 192.592,70.936 -69.78,260.44 -175.313,-47 -4.843,18.06 184.376,49.41 9,2.406 2.436,-9.03 72.188,-269.44 -18.063,-4.843 z"
       inkscape:connector-curvature="0"
       style="fill:#7c593f;fill-opacity:1;stroke-width:1.99406826" />
  </g>
</svg>
