<?xml version="1.0" encoding="UTF-8" standalone="no"?>
<svg
   xmlns:dc="http://purl.org/dc/elements/1.1/"
   xmlns:cc="http://creativecommons.org/ns#"
   xmlns:rdf="http://www.w3.org/1999/02/22-rdf-syntax-ns#"
   xmlns:svg="http://www.w3.org/2000/svg"
   xmlns="http://www.w3.org/2000/svg"
   xmlns:sodipodi="http://sodipodi.sourceforge.net/DTD/sodipodi-0.dtd"
   xmlns:inkscape="http://www.inkscape.org/namespaces/inkscape"
   style="height: 512px; width: 512px;"
   viewBox="0 0 512 512"
   version="1.1"
   id="svg6"
   sodipodi:docname="scraps particle.svg"
   inkscape:version="0.92.3 (2405546, 2018-03-11)"
   inkscape:export-filename="D:\Varie\SlothMachine\Game\Assets\EffectExamples\Fire &amp; Explosion Effects\Textures\scraps.png"
   inkscape:export-xdpi="300"
   inkscape:export-ydpi="300">
  <metadata
     id="metadata12">
    <rdf:RDF>
      <cc:Work
         rdf:about="">
        <dc:format>image/svg+xml</dc:format>
        <dc:type
           rdf:resource="http://purl.org/dc/dcmitype/StillImage" />
        <dc:title></dc:title>
      </cc:Work>
    </rdf:RDF>
  </metadata>
  <defs
     id="defs10" />
  <sodipodi:namedview
     pagecolor="#ffffff"
     bordercolor="#666666"
     borderopacity="1"
     objecttolerance="10"
     gridtolerance="10"
     guidetolerance="10"
     inkscape:pageopacity="0"
     inkscape:pageshadow="2"
     inkscape:window-width="640"
     inkscape:window-height="480"
     id="namedview8"
     showgrid="true"
     inkscape:zoom="1.2415801"
     inkscape:cx="255.55657"
     inkscape:cy="246.8396"
     inkscape:current-layer="svg6"
     inkscape:snap-global="true"
     inkscape:measure-start="0,0"
     inkscape:measure-end="0,0"
     inkscape:snap-grids="false">
    <inkscape:grid
       type="xygrid"
       id="grid22"
       empspacing="27" />
  </sodipodi:namedview>
  <g
     class=""
     style="fill:#ffffff;fill-opacity:1;stroke-width:2.4385848"
     transform="matrix(0.39683287,-0.10336489,0.10336489,0.39683287,2.8374154,313.6093)"
     id="g4">
    <path
       d="M 256,31.365 29.44,123.697 v 179.9 L 256,395.926 482.56,303.596 v -179.9 z m 0,73.93 c 38.765,0 74.22,10.93 100.89,29.756 26.72,18.864 45.11,46.74 45.11,78.596 0,31.856 -18.39,59.733 -45.11,78.596 C 330.22,311.067 294.764,322 256,322 217.236,322 181.78,311.067 155.11,292.242 128.39,273.38 110,245.502 110,213.646 c 0,-31.855 18.39,-59.732 45.11,-78.595 26.67,-18.824 62.125,-29.755 100.89,-29.755 z m 62.97756,-9.574687 c -33.522,0 -87.9642,-23.323351 -109.3702,-7.269351 -12.542,9.407 -102.31271,50.670668 -108.01271,63.036668 -30.759694,-23.63973 23.9527,137.12935 24.8427,138.19435 C 130.79235,285.15698 154.913,250.801 160.09,246.918 185.01,228.228 218.83,217 256,217 c 37.17,0 70.99,11.227 95.91,29.918 5.177,3.883 30.45776,31.38814 34.81176,35.91314 0.89,-1.065 111.22368,-86.28815 35.11492,-56.47329 -5.7,-12.366 12.50821,-63.74754 -0.0348,-73.15454 -21.406,-16.054 -69.30433,-57.482997 -102.82433,-57.482997 z M 29.44,323.033 l 0,70.916 217.56,88.663 0,-70.916 z m 453.12,0 L 265,411.7 l 0,70.913 217.56,-88.664 v -70.917 z"
       id="path2"
       style="fill:#ffffff;fill-opacity:1;stroke-width:2.4385848"
       inkscape:connector-curvature="0"
       sodipodi:nodetypes="cccccccccscscscccsccccsccccsccccccccccc" />
  </g>
  <g
     id="g824"
     class=""
     transform="matrix(1.0007679,0.77333846,-0.77333846,1.0007679,-391.09331,-680.68367)"
     style="fill:#ffffff;fill-opacity:1;stroke-width:0.79067105">
    <path
       style="fill:#ffffff;fill-opacity:1;stroke-width:1"
       d="m 410.24219,13.759766 c -1.64395,0.01066 -3.26654,0.08513 -4.86328,0.222656 -12.3269,1.063597 -23.03305,5.447575 -31.7168,14.800781 l 38.67383,23.035156 c -9.39314,14.918088 -30.08267,48.895571 -37.47071,63.056641 -5.67699,12.20732 -22.38409,47.89393 -27.06445,60.30078 -5.23579,16.28203 -17.71799,56.01607 -20.97266,72.25781 17.43451,-14.32947 53.55674,-53.49872 69.18165,-70.91601 9.38041,-11.77503 33.07502,-47.2574 41.54687,-59.90235 l 0,-0.002 c 3.27126,-5.42844 18.43905,-31.010396 21.7168,-36.837889 l 36.50195,21.742189 C 499.22675,89.307051 497.57202,77.582509 492.38867,66.083984 489.32736,59.291681 484.9073,52.713433 479.5,46.632812 v 0 L 446.11914,22.087891 c -11.82909,-5.415095 -24.36935,-8.402762 -35.87695,-8.328125 z"
       transform="matrix(0.62564074,-0.4834608,0.4834608,0.62564074,573.76778,236.78515)"
       id="path822"
       inkscape:connector-curvature="0"
       sodipodi:nodetypes="scccccccccccccccs" />
  </g>
  <g
     id="g878"
     class=""
     transform="matrix(0.45068078,-0.09135119,0.09135119,0.45068078,239.23343,285.7599)"
     style="fill:#ffffff;fill-opacity:1;stroke-width:2.17464185">
    <path
       id="path876"
       d="m 362.80637,21.397941 c -0.77941,0 -1.89284,0.155881 -3.22897,0.489912 -3.78568,0.913017 -8.90749,3.763415 -13.0272,7.671576 -4.23106,3.908162 -7.46003,8.818417 -8.79615,12.626369 -1.22478,3.796818 -0.89075,5.478107 0.55672,7.315277 30.50815,37.600748 58.56675,80.211955 80.05607,117.734765 21.48933,37.63415 36.40937,69.25574 40.75178,88.96357 0.44537,2.00418 0.7794,2.22687 0.7794,2.11552 1.33613,0 6.34659,-1.89284 11.02302,-5.78986 4.78778,-3.89703 9.57556,-9.57556 12.35915,-14.80871 2.89493,-5.23315 3.45165,-9.79824 2.89493,-11.57974 C 469.36223,164.56359 438.74273,96.521495 366.03533,22.856542 c -0.7794,-0.746002 -1.44746,-1.213645 -2.44956,-1.380661 -0.22268,0 -0.44537,-0.111343 -0.7794,-0.111343 z m 59.23481,34.483125 c 12.2478,15.499035 22.93679,30.797651 32.17832,45.840174 14.47467,8.06128 31.73293,18.19355 48.87985,28.99388 16.92424,10.46631 32.73503,21.04395 45.53955,30.50816 l -2.00418,-31.39891 C 528.37436,111.67536 496.53008,92.468586 464.12908,76.034265 449.54306,68.629913 435.40242,61.993832 422.04118,55.881066 Z M 274.51086,109.67118 c -0.7794,0 -1.89284,0.11134 -3.22896,0.44537 -3.78569,0.89075 -8.79615,3.78568 -13.02721,7.68271 -4.11971,3.89703 -7.34868,8.79615 -8.57346,12.58183 -1.22478,3.67434 -1.00209,5.3445 0.55672,7.23734 30.50816,37.63415 58.56675,80.16742 80.05607,117.69023 21.48933,37.63415 36.29803,69.36708 40.75178,88.85222 v 0.11134 c 0.44537,2.00419 0.7794,2.22688 0.7794,2.11553 1.22478,0 6.23525,-1.89284 11.02302,-5.78987 4.78778,-3.89702 9.46421,-9.57555 12.35915,-14.8087 2.78359,-5.23315 3.34031,-9.90958 2.89493,-11.57974 -17.03558,-61.46169 -47.65508,-129.38131 -120.36247,-203.0908 -0.77941,-0.7794 -1.44747,-1.22478 -2.44956,-1.33612 -0.22269,-0.11134 -0.44538,-0.11134 -0.77941,-0.11134 z m 59.12347,34.40518 c 12.35915,15.58811 23.04814,30.95353 32.401,45.98492 14.47468,8.12809 31.73294,18.26036 48.87986,28.94935 3.89703,2.44956 7.79406,4.89912 11.57974,7.34868 -6.45793,-14.14064 -15.14274,-30.84219 -25.27501,-48.65717 -8.23943,-4.67643 -16.70154,-9.13018 -25.275,-13.47258 -14.69736,-7.34868 -28.83801,-14.0293 -42.31059,-20.1532 z m -140.8497,63.57722 c -0.77941,0 -1.89284,0.11134 -3.22897,0.44537 -3.78568,0.89075 -8.90749,3.78569 -13.0272,7.68271 -4.23106,3.89703 -7.46003,8.79615 -8.79615,12.58184 -1.22478,3.78568 -0.89075,5.45583 0.55672,7.23733 30.50816,37.52281 58.56675,80.05608 80.05608,117.69023 21.48932,37.63415 36.40937,69.25574 40.75177,88.96357 0.44537,2.00418 0.7794,2.22687 0.7794,2.11553 1.22478,0 6.34659,-1.89284 11.02302,-5.78987 4.78778,-3.89703 9.57556,-9.57556 12.35915,-14.80871 2.89493,-5.34449 3.45165,-9.90958 2.89493,-11.69108 -16.92423,-61.35034 -47.43239,-129.26996 -120.13978,-203.0908 -0.77941,-0.66806 -1.44747,-1.11343 -2.44956,-1.33612 z m 59.12347,34.40518 c 12.35915,15.47677 22.93679,30.84219 32.28966,45.87358 14.47467,8.12809 31.73294,18.26036 48.87986,28.94935 3.00627,1.89284 6.01255,3.78568 8.90749,5.56718 -5.78987,-13.24989 -13.91796,-29.61741 -23.7162,-47.32105 -7.9054,-4.45374 -16.03348,-8.79614 -24.27291,-12.91586 -14.58602,-7.46002 -28.72666,-14.0293 -42.0879,-20.1532 z M 104.60047,295.7264 c -0.85735,0 -1.90398,0.22268 -3.30691,0.55672 -3.718877,0.89074 -8.807281,3.67434 -12.993802,7.57136 -4.186521,3.89703 -7.437755,8.79615 -8.67367,12.58183 -1.22478,3.78569 -0.957555,5.45584 0.53445,7.23734 30.541562,37.63415 58.622422,80.16742 80.111752,117.69023 21.48932,37.63415 36.40937,69.25574 40.75177,88.85222 v 0.11135 c 0.44537,2.00418 0.7794,2.22687 0.7794,2.11553 1.33613,0 6.34659,-1.89285 11.02302,-5.78987 4.78778,-3.89703 9.57556,-9.57556 12.35915,-14.80871 2.89493,-5.23315 3.45165,-9.79824 2.89493,-11.57974 -17.03557,-61.35034 -47.54373,-129.26996 -120.2734,-203.0908 -0.7794,-0.66806 -1.44746,-1.22478 -2.41615,-1.33612 -0.24496,-0.11134 -0.51218,-0.11134 -0.79054,-0.11134 z m 59.12347,34.40518 c 12.35914,15.58811 23.04813,30.95353 32.28966,45.98493 14.47467,8.12808 31.73293,18.26035 48.87985,28.94934 3.89703,2.44956 7.79406,4.89912 11.57974,7.34868 -6.45793,-14.14064 -15.03139,-30.84219 -25.16366,-48.65717 -8.23943,-4.56509 -16.81289,-9.13018 -25.38635,-13.47258 -14.58602,-7.34868 -28.72666,-14.0293 -42.19924,-20.1532 z M 20.224257,384.91265 c 0.378569,2.33822 1.14684,5.3445 3.206697,9.35287 6.40226,12.58183 22.368938,30.95353 52.042016,47.43239 26.6,14.8087 52.17563,31.62159 94.7089,62.79781 -6.68062,-15.03139 -16.03348,-33.51443 -27.27919,-53.11091 l -0.33403,-0.66807 C 102.80783,423.88293 50.710145,399.38733 20.224257,384.91265 Z"
       inkscape:connector-curvature="0"
       style="fill:#ffffff;fill-opacity:1;stroke-width:2.17464185" />
  </g>
  <g
     id="g892"
     class=""
     transform="matrix(0.49464264,0,0,0.49464264,5.7930121,-1.0002755)"
     style="fill:#ffffff;fill-opacity:1;stroke-width:2.02166152">
    <path
       style="fill:#ffffff;fill-opacity:1;stroke-width:1"
       d="M 89.634766 18.275391 L 88.445312 22.728516 L 86.310547 30.6875 L 69.03125 26.066406 L 67.361328 32.263672 L 54.128906 28.724609 L 51.732422 37.642578 L 64.978516 41.199219 L 63.558594 46.46875 L 80.839844 51.091797 L 74.78125 73.705078 L 57.498047 69.083984 L 55.861328 75.158203 L 42.628906 71.619141 L 40.232422 80.552734 L 53.464844 84.091797 L 52.027344 89.488281 L 69.308594 94.109375 L 63.109375 117.20508 L 45.84375 112.58203 L 44.375 118.08398 L 31.128906 114.5293 L 28.732422 123.44922 L 41.978516 127.00391 L 40.371094 132.98633 L 57.636719 137.60938 L 51.701172 159.74414 L 34.435547 155.12109 L 33.013672 160.43945 L 19.767578 156.88281 L 17.386719 165.80273 L 30.617188 169.3418 L 28.964844 175.53906 L 46.230469 180.16211 L 44.019531 188.41602 L 42.830078 192.88281 L 47.296875 194.07422 L 173.35352 227.84766 L 177.82031 229.03906 L 179.01172 224.57227 L 181.2207 216.33398 L 198.44141 220.93945 L 200.09375 214.75781 L 213.46484 218.34375 L 215.86133 209.42383 L 202.49023 205.83789 L 203.91211 200.51953 L 186.69336 195.91406 L 192.63086 173.7793 L 209.84766 178.38477 L 211.45508 172.40234 L 224.82812 175.98828 L 227.20703 167.07031 L 213.83789 163.48438 L 215.32227 157.96484 L 198.10156 153.35938 L 204.28516 130.28125 L 221.50391 134.88672 L 222.94141 129.50781 L 236.31055 133.09375 L 238.70703 124.1582 L 225.33789 120.57227 L 226.96094 114.48438 L 209.75586 109.87695 L 215.81641 87.261719 L 233.01953 91.869141 L 234.42578 86.613281 L 247.81055 90.199219 L 250.20703 81.265625 L 236.82227 77.677734 L 238.49023 71.449219 L 221.28711 66.841797 L 223.41992 58.898438 L 224.625 54.431641 L 220.1582 53.224609 L 94.101562 19.464844 L 89.634766 18.275391 z M 191.42188 64.677734 L 191.42383 64.679688 L 200.35742 67.076172 L 164.65039 200.35156 L 163.44531 204.81836 L 158.99414 203.62891 L 67.792969 179.1875 L 70.189453 170.25586 L 156.90625 193.50391 L 191.42188 64.677734 z "
       transform="matrix(2.0216615,0,0,2.0216615,-11.71151,2.0222185)"
       id="path26" />
  </g>
</svg>
